<?xml version="1.0" encoding="UTF-8" standalone="no"?>
<!-- Created with Inkscape (http://www.inkscape.org/) -->

<svg
   xmlns:dc="http://purl.org/dc/elements/1.1/"
   xmlns:cc="http://creativecommons.org/ns#"
   xmlns:rdf="http://www.w3.org/1999/02/22-rdf-syntax-ns#"
   xmlns:svg="http://www.w3.org/2000/svg"
   xmlns="http://www.w3.org/2000/svg"
   xmlns:sodipodi="http://sodipodi.sourceforge.net/DTD/sodipodi-0.dtd"
   xmlns:inkscape="http://www.inkscape.org/namespaces/inkscape"
   width="210mm"
   height="297mm"
   viewBox="0 0 744.09448819 1052.3622047"
   id="svg10155"
   version="1.1"
   inkscape:version="0.91 r"
   sodipodi:docname="images.svg">
  <defs
     id="defs10157" />
  <sodipodi:namedview
     id="base"
     pagecolor="#ffffff"
     bordercolor="#666666"
     borderopacity="1.0"
     inkscape:pageopacity="0.0"
     inkscape:pageshadow="2"
     inkscape:zoom="0.35"
     inkscape:cx="-272.14286"
     inkscape:cy="520"
     inkscape:document-units="px"
     inkscape:current-layer="layer1"
     showgrid="false"
     inkscape:window-width="1615"
     inkscape:window-height="1026"
     inkscape:window-x="65"
     inkscape:window-y="24"
     inkscape:window-maximized="1" />
  <metadata
     id="metadata10160">
    <rdf:RDF>
      <cc:Work
         rdf:about="">
        <dc:format>image/svg+xml</dc:format>
        <dc:type
           rdf:resource="http://purl.org/dc/dcmitype/StillImage" />
        <dc:title></dc:title>
      </cc:Work>
    </rdf:RDF>
  </metadata>
  <g
     inkscape:label="Camada 1"
     inkscape:groupmode="layer"
     id="layer1">
    <g
       id="g14145"
       transform="matrix(0.9993641,0,0,0.9993641,3470.1243,79.142181)"
       inkscape:export-xdpi="300"
       inkscape:export-ydpi="300"
       inkscape:export-filename="/home/mika/devel/ypbook/book/03-Heading-for-Yocto-Project/images/overall-datapath.png">
      <g
         style="fill:#27bff2;fill-opacity:1;stroke:none"
         transform="matrix(1.437362,0,0,1.437362,4981.1147,7784.8316)"
         id="g9551-3-7">
        <path
           style="fill:#27bff2;fill-opacity:1;stroke:none"
           d="m -5456.4002,-4973.374 -116.4818,0 0,9.2409 116.4818,0 z"
           id="rect6493-5-17-3-8-6-8-6-5-5-0-0-6-0-3-4-16-7-4"
           inkscape:connector-curvature="0"
           sodipodi:nodetypes="ccccc" />
        <path
           style="fill:#27bff2;fill-opacity:1;stroke:none"
           d="m -5572.882,-4973.374 -116.4818,0 0,9.2409 116.4818,0 z"
           id="rect6493-5-17-3-8-6-8-6-5-5-0-0-6-0-3-4-1-3-3-4"
           inkscape:connector-curvature="0"
           sodipodi:nodetypes="ccccc" />
        <path
           style="fill:#27bff2;fill-opacity:1;stroke:none"
           d="m -5671.5549,-4973.374 -116.4818,0 0,9.2409 116.4818,0 z"
           id="rect6493-5-17-3-8-6-8-6-5-5-0-0-6-0-3-4-1-8-1-5-6"
           inkscape:connector-curvature="0"
           sodipodi:nodetypes="ccccc" />
      </g>
      <path
         sodipodi:nodetypes="cccccc"
         inkscape:connector-curvature="0"
         id="rect6493-5-17-3-8-6-8-6-5-5-0-8-8-8-5-0"
         d="m -3338.3892,649.57522 0,-26.56504 6.6413,-8.25664 6.6412,8.25664 0,26.56504 z"
         style="fill:#27bff2;fill-opacity:1;stroke:none" />
      <path
         sodipodi:nodetypes="cccccc"
         inkscape:connector-curvature="0"
         id="rect6493-5-17-3-8-6-8-6-5-5-0-8-8-8-0-9-4"
         d="m -3184.2482,649.57522 0,-26.56504 6.6413,-8.25664 6.6412,8.25664 0,26.56504 z"
         style="fill:#27bff2;fill-opacity:1;stroke:none" />
      <path
         sodipodi:nodetypes="cccccc"
         inkscape:connector-curvature="0"
         id="rect6493-5-17-3-8-6-8-6-5-5-0-8-8-8-7-2-1"
         d="m -2874.99,649.57522 0,-26.56504 6.6413,-8.25664 6.6412,8.25664 0,26.56504 z"
         style="fill:#27bff2;fill-opacity:1;stroke:none" />
      <g
         transform="translate(-0.2447,0)"
         id="g14081">
        <path
           inkscape:connector-curvature="0"
           id="rect5246-3-6-3-2-2-5-8-7-9-6-4-3-8-6-6-4-1"
           d="m -3243.1029,575.62223 131.4813,0 c 2.6579,0 4.7979,2.1398 4.7979,4.79791 l 0,22.7234 c 0,2.65811 -2.14,4.79806 -4.7979,4.79806 l -131.4813,0 c -2.6579,0 -4.7979,-2.13995 -4.7979,-4.79806 l 0,-22.7234 c 0,-2.65811 2.14,-4.79791 4.7979,-4.79791 z"
           style="fill:#f2f2f2;fill-opacity:1;stroke:#666666;stroke-width:0.53847808;stroke-miterlimit:4;stroke-opacity:1" />
        <text
           xml:space="preserve"
           style="font-style:normal;font-variant:normal;font-stretch:normal;font-size:13px;line-height:125%;font-family:Lato;-inkscape-font-specification:'Lato Semi-Light';letter-spacing:0px;word-spacing:0px;fill:#000000;fill-opacity:1;stroke:none"
           x="-3240.8469"
           y="595.45441"
           id="text3229-9-0-5-5-2-3-7-9-6-8-8-9-3"
           sodipodi:linespacing="125%"><tspan
             sodipodi:role="line"
             id="tspan3231-65-6-4-6-0-7-6-1-7-8-8-5-89"
             x="-3240.8469"
             y="595.45441">Application Developer</tspan></text>
      </g>
      <path
         sodipodi:nodetypes="cccccc"
         inkscape:connector-curvature="0"
         id="rect6493-5-17-3-8-6-8-6-5-5-0-8-8-8-4-0-6"
         d="m -3029.1343,649.57522 0,-26.56504 6.6413,-8.25664 6.6412,8.25664 0,26.56504 z"
         style="fill:#27bff2;fill-opacity:1;stroke:none" />
      <g
         transform="translate(0.2417,0)"
         id="g14086">
        <path
           inkscape:connector-curvature="0"
           id="rect5246-3-6-3-2-2-5-8-7-9-6-4-3-8-6-63-9-4"
           d="m -3088.4754,575.62208 131.4813,0 c 2.658,0 4.7979,2.1398 4.7979,4.79792 l 0,22.7234 c 0,2.65811 -2.1399,4.79805 -4.7979,4.79805 l -131.4813,0 c -2.6579,0 -4.7979,-2.13994 -4.7979,-4.79805 l 0,-22.7234 c 0,-2.65812 2.14,-4.79792 4.7979,-4.79792 z"
           style="fill:#f2f2f2;fill-opacity:1;stroke:#666666;stroke-width:0.53847808;stroke-miterlimit:4;stroke-opacity:1" />
        <text
           xml:space="preserve"
           style="font-style:normal;font-variant:normal;font-stretch:normal;font-size:13px;line-height:125%;font-family:Lato;-inkscape-font-specification:'Lato Semi-Light';letter-spacing:0px;word-spacing:0px;fill:#000000;fill-opacity:1;stroke:none"
           x="-3067.1504"
           y="595.38275"
           id="text3229-9-0-5-5-2-3-7-9-6-8-8-9-2-1"
           sodipodi:linespacing="125%"><tspan
             sodipodi:role="line"
             id="tspan3231-65-6-4-6-0-7-6-1-7-8-8-5-8-7"
             x="-3067.1504"
             y="595.38275">Legal Authority</tspan></text>
      </g>
      <g
         transform="translate(76.83055,0)"
         id="g14140">
        <path
           inkscape:connector-curvature="0"
           id="rect5246-3-6-3-2-2-5-8-7-9-6-4-3-8-6-2-9-2"
           d="m -3010.9199,575.62237 131.4812,0 c 2.658,0 4.7979,2.1398 4.7979,4.79791 l 0,22.7234 c 0,2.65812 -2.1399,4.79806 -4.7979,4.79806 l -131.4812,0 c -2.658,0 -4.7979,-2.13994 -4.7979,-4.79806 l 0,-22.7234 c 0,-2.65811 2.1399,-4.79791 4.7979,-4.79791 z"
           style="fill:#f2f2f2;fill-opacity:1;stroke:#666666;stroke-width:0.53847808;stroke-miterlimit:4;stroke-opacity:1" />
        <text
           xml:space="preserve"
           style="font-style:normal;font-variant:normal;font-stretch:normal;font-size:13px;line-height:125%;font-family:Lato;-inkscape-font-specification:'Lato Semi-Light';letter-spacing:0px;word-spacing:0px;fill:#000000;fill-opacity:1;stroke:none"
           x="-2993.8472"
           y="595.45453"
           id="text3229-9-0-5-5-2-3-7-9-6-8-8-9-2-8-3"
           sodipodi:linespacing="125%"><tspan
             sodipodi:role="line"
             id="tspan3231-65-6-4-6-0-7-6-1-7-8-8-5-8-1-1"
             x="-2993.8472"
             y="595.45453">System Architect</tspan></text>
      </g>
      <g
         transform="translate(0.2417,0)"
         id="g14100">
        <path
           inkscape:connector-curvature="0"
           id="rect5246-3-6-3-2-2-5-8-7-9-6-4-3-8-6-7-8"
           d="m -3397.7303,575.62223 131.4813,0 c 2.658,0 4.7979,2.1398 4.7979,4.79791 l 0,22.7234 c 0,2.65811 -2.1399,4.79806 -4.7979,4.79806 l -131.4813,0 c -2.6579,0 -4.7979,-2.13995 -4.7979,-4.79806 l 0,-22.7234 c 0,-2.65811 2.14,-4.79791 4.7979,-4.79791 z"
           style="fill:#f2f2f2;fill-opacity:1;stroke:#666666;stroke-width:0.53847808;stroke-miterlimit:4;stroke-opacity:1" />
        <text
           xml:space="preserve"
           style="font-style:normal;font-variant:normal;font-stretch:normal;font-size:13px;line-height:125%;font-family:Lato;-inkscape-font-specification:'Lato Semi-Light';letter-spacing:0px;word-spacing:0px;fill:#000000;fill-opacity:1;stroke:none"
           x="-3391.3354"
           y="595.45441"
           id="text3229-9-0-5-5-2-3-7-9-6-8-8-9-3-4"
           sodipodi:linespacing="125%"><tspan
             sodipodi:role="line"
             id="tspan3231-65-6-4-6-0-7-6-1-7-8-8-5-89-1"
             x="-3391.3354"
             y="595.45441">Low Level Developer</tspan></text>
      </g>
    </g>
    <g
       id="g7379"
       transform="translate(3388.3628,1010.8196)"
       inkscape:export-filename="/home/mika/devel/ypbook/book/images/hierarchy.png"
       inkscape:export-xdpi="300"
       inkscape:export-ydpi="300">
      <g
         transform="translate(348.10319,0)"
         id="g20108">
        <path
           style="fill:#27bff2;fill-opacity:1;stroke:none"
           d="m -3357.7475,-131.05746 0,-26.95988 -13.4799,0 0,26.95988 z"
           id="rect6493-5-17-3-8-6-8-6-5-5-0-0-6"
           inkscape:connector-curvature="0"
           sodipodi:nodetypes="ccccc" />
        <path
           style="fill:#27bff2;fill-opacity:1;stroke:none"
           d="m -3357.7476,-172.94332 0,-26.95989 -13.48,0 0,26.95989 z"
           id="rect6493-5-17-3-8-6-8-6-5-5-0-0"
           inkscape:connector-curvature="0"
           sodipodi:nodetypes="ccccc" />
        <rect
           style="fill:#f2f2f2;fill-opacity:1;stroke:#666666;stroke-width:0.54648173;stroke-miterlimit:4;stroke-dasharray:none;stroke-opacity:1"
           id="rect5246-3-6-3-2-2-5-8-7-9-6-86"
           width="143.17406"
           height="32.799809"
           x="-3436.0745"
           y="-225.97627"
           ry="4.8693347" />
        <text
           xml:space="preserve"
           style="font-style:normal;font-variant:normal;font-stretch:normal;font-size:13px;line-height:125%;font-family:Lato;-inkscape-font-specification:'Lato Semi-Light';letter-spacing:0px;word-spacing:0px;fill:#000000;fill-opacity:1;stroke:none"
           x="-3408.9031"
           y="-205.97537"
           id="text3229-9-0-5-5-2-3-7-9-6-03"
           sodipodi:linespacing="125%"><tspan
             sodipodi:role="line"
             id="tspan3231-65-6-4-6-0-7-6-1-7-4"
             x="-3408.9031"
             y="-205.97537">Legal Authority</tspan></text>
        <rect
           style="fill:#f2f2f2;fill-opacity:1;stroke:#666666;stroke-width:0.54648173;stroke-miterlimit:4;stroke-dasharray:none;stroke-opacity:1"
           id="rect5246-3-6-3-2-2-5-8-7-9-6-8-3"
           width="143.17406"
           height="32.799809"
           x="-3436.0745"
           y="-178.38034"
           ry="4.8693347" />
        <text
           xml:space="preserve"
           style="font-style:normal;font-variant:normal;font-stretch:normal;font-size:13px;line-height:125%;font-family:Lato;-inkscape-font-specification:'Lato Semi-Light';letter-spacing:0px;word-spacing:0px;fill:#000000;fill-opacity:1;stroke:none"
           x="-3413.1553"
           y="-158.30794"
           id="text3229-9-0-5-5-2-3-7-9-6-0-04"
           sodipodi:linespacing="125%"><tspan
             sodipodi:role="line"
             id="tspan3231-65-6-4-6-0-7-6-1-7-7-3"
             x="-3413.1553"
             y="-158.30794">System Architect</tspan></text>
        <rect
           style="fill:#f2f2f2;fill-opacity:1;stroke:#666666;stroke-width:0.54648173;stroke-miterlimit:4;stroke-dasharray:none;stroke-opacity:1"
           id="rect5246-3-6-3-2-2-5-8-7-9-6-4-3"
           width="143.17406"
           height="32.799809"
           x="-3514.2922"
           y="-103.0544"
           ry="4.8693347" />
        <text
           xml:space="preserve"
           style="font-style:normal;font-variant:normal;font-stretch:normal;font-size:13px;line-height:125%;font-family:Lato;-inkscape-font-specification:'Lato Semi-Light';letter-spacing:0px;word-spacing:0px;fill:#000000;fill-opacity:1;stroke:none"
           x="-3502.051"
           y="-82.981995"
           id="text3229-9-0-5-5-2-3-7-9-6-8-9"
           sodipodi:linespacing="125%"><tspan
             sodipodi:role="line"
             id="tspan3231-65-6-4-6-0-7-6-1-7-8-82"
             x="-3502.051"
             y="-82.981995">Low Level Developer</tspan></text>
        <rect
           style="fill:#f2f2f2;fill-opacity:1;stroke:#666666;stroke-width:0.54648173;stroke-miterlimit:4;stroke-dasharray:none;stroke-opacity:1"
           id="rect5246-3-6-3-2-2-5-8-7-9-6-4-2-3"
           width="143.17406"
           height="32.799809"
           x="-3357.7192"
           y="-103.0544"
           ry="4.8693347" />
        <text
           xml:space="preserve"
           style="font-style:normal;font-variant:normal;font-stretch:normal;font-size:13px;line-height:125%;font-family:Lato;-inkscape-font-specification:'Lato Semi-Light';letter-spacing:0px;word-spacing:0px;fill:#000000;fill-opacity:1;stroke:none"
           x="-3349.6167"
           y="-82.981995"
           id="text3229-9-0-5-5-2-3-7-9-6-8-8-1"
           sodipodi:linespacing="125%"><tspan
             sodipodi:role="line"
             x="-3349.6167"
             y="-82.981995"
             id="tspan7386">Application Developer</tspan></text>
        <path
           style="fill:#27bff2;fill-opacity:1;stroke:none"
           d="m -3449.4449,-117.57751 169.915,0 0,-13.47995 -169.915,0 z"
           id="rect6493-5-17-3-8-6-8-6-5-5-0-0-6-0"
           inkscape:connector-curvature="0"
           sodipodi:nodetypes="ccccc" />
        <path
           style="fill:#27bff2;fill-opacity:1;stroke:none"
           d="m -3279.5296,-103.32766 0,-26.95988 -13.4799,0 0,26.95988 z"
           id="rect6493-5-17-3-8-6-8-6-5-5-0-0-6-8"
           inkscape:connector-curvature="0"
           sodipodi:nodetypes="ccccc" />
        <path
           style="fill:#27bff2;fill-opacity:1;stroke:none"
           d="m -3435.965,-103.32769 0,-26.95989 -13.4799,0 0,26.95989 z"
           id="rect6493-5-17-3-8-6-8-6-5-5-0-0-6-8-7"
           inkscape:connector-curvature="0"
           sodipodi:nodetypes="ccccc" />
      </g>
      <rect
         ry="2.2534583"
         y="-212.42493"
         x="-3318.6306"
         height="128.619"
         width="604.63019"
         id="rect6292-6-2-4"
         style="fill:none;stroke:none" />
    </g>
    <g
       id="g13923"
       inkscape:export-xdpi="300"
       inkscape:export-ydpi="300"
       transform="translate(3292.5445,98.410782)">
      <g
         id="g13821">
        <g
           id="g6546"
           inkscape:export-filename="/home/mika/Ãrea de Trabalho/Yocto_Pronto/Cap3/dia300dpi.png"
           inkscape:export-xdpi="300"
           inkscape:export-ydpi="300">
          <rect
             y="8.783164"
             x="-3222.3618"
             height="490.21887"
             width="603.72913"
             id="rect4299-79-2-0"
             style="fill:#f2f2f2;fill-opacity:1;fill-rule:evenodd;stroke:#666666;stroke-width:0.9013359;stroke-linecap:butt;stroke-linejoin:miter;stroke-miterlimit:4;stroke-dasharray:none;stroke-opacity:1"
             ry="7.3470001" />
          <g
             id="g6334">
            <g
               id="g6234"
               transform="translate(8.2358718e-5,0)">
              <rect
                 ry="7.3470001"
                 y="143.73116"
                 x="-3190.0054"
                 height="99.730789"
                 width="264.73077"
                 id="rect4299-79-2-0-2"
                 style="fill:#d9d9d9;fill-opacity:1;fill-rule:evenodd;stroke:#666666;stroke-width:0.26920769;stroke-linecap:butt;stroke-linejoin:miter;stroke-miterlimit:4;stroke-dasharray:none;stroke-opacity:1" />
              <rect
                 ry="7.3470001"
                 y="23.139055"
                 x="-3190.0054"
                 height="99.730789"
                 width="264.73077"
                 id="rect4299-79-2-0-2-74"
                 style="fill:#d9d9d9;fill-opacity:1;fill-rule:evenodd;stroke:#666666;stroke-width:0.26920769;stroke-linecap:butt;stroke-linejoin:miter;stroke-miterlimit:4;stroke-dasharray:none;stroke-opacity:1" />
              <g
                 transform="translate(-24,0)"
                 id="g8314">
                <g
                   id="g8304">
                  <text
                     transform="scale(0.99928292,1.0007176)"
                     sodipodi:linespacing="125%"
                     id="text3229-9-0-5-5-2-3-7-9-6-2-1-6-4"
                     y="43.378399"
                     x="-3076.8252"
                     style="font-style:normal;font-variant:normal;font-stretch:normal;font-size:12.99067879px;line-height:125%;font-family:Lato;-inkscape-font-specification:'Lato Semi-Light';letter-spacing:0px;word-spacing:0px;fill:#000000;fill-opacity:1;stroke:none"
                     xml:space="preserve"><tspan
                       y="43.378399"
                       x="-3076.8252"
                       id="tspan3231-65-6-4-6-0-7-6-1-7-9-7-5-0"
                       sodipodi:role="line">Board bringup</tspan></text>
                  <text
                     transform="scale(0.99928292,1.0007176)"
                     sodipodi:linespacing="125%"
                     id="text3229-9-0-5-5-2-3-7-9-6-0-4-4-5-37"
                     y="65.533615"
                     x="-3106.761"
                     style="font-style:normal;font-variant:normal;font-stretch:normal;font-size:12.99067879px;line-height:125%;font-family:Lato;-inkscape-font-specification:'Lato Semi-Light';letter-spacing:0px;word-spacing:0px;fill:#000000;fill-opacity:1;stroke:none"
                     xml:space="preserve"><tspan
                       y="65.533615"
                       x="-3106.761"
                       id="tspan3231-65-6-4-6-0-7-6-1-7-7-61-7-7-2"
                       sodipodi:role="line">Bootloader development</tspan></text>
                  <text
                     transform="scale(0.99928292,1.0007176)"
                     sodipodi:linespacing="125%"
                     id="text3229-9-0-5-5-2-3-7-9-6-8-2-8-9-3"
                     y="87.69957"
                     x="-3093.759"
                     style="font-style:normal;font-variant:normal;font-stretch:normal;font-size:12.99067879px;line-height:125%;font-family:Lato;-inkscape-font-specification:'Lato Semi-Light';letter-spacing:0px;word-spacing:0px;fill:#000000;fill-opacity:1;stroke:none"
                     xml:space="preserve"><tspan
                       y="87.69957"
                       x="-3093.759"
                       id="tspan3231-65-6-4-6-0-7-6-1-7-8-80-1-1-2"
                       sodipodi:role="line">Kernel development</tspan></text>
                  <text
                     transform="scale(0.99928292,1.0007176)"
                     sodipodi:linespacing="125%"
                     id="text3229-9-0-5-5-2-3-7-9-6-8-8-3-2-5-6"
                     y="109.86553"
                     x="-3112.7236"
                     style="font-style:normal;font-variant:normal;font-stretch:normal;font-size:12.99067879px;line-height:125%;font-family:Lato;-inkscape-font-specification:'Lato Semi-Light';letter-spacing:0px;word-spacing:0px;fill:#000000;fill-opacity:1;stroke:none"
                     xml:space="preserve"><tspan
                       y="109.86553"
                       x="-3112.7236"
                       id="tspan3231-65-6-4-6-0-7-6-1-7-8-8-3-5-9-4"
                       sodipodi:role="line">Device driver development</tspan></text>
                </g>
              </g>
              <rect
                 ry="7.3470001"
                 y="384.91537"
                 x="-3190.0054"
                 height="99.730789"
                 width="264.73077"
                 id="rect4299-79-2-0-2-7"
                 style="fill:#d9d9d9;fill-opacity:1;fill-rule:evenodd;stroke:#666666;stroke-width:0.26920769;stroke-linecap:butt;stroke-linejoin:miter;stroke-miterlimit:4;stroke-dasharray:none;stroke-opacity:1" />
              <g
                 transform="translate(-23.999897,0)"
                 id="g8343">
                <g
                   id="text3229-9-0-5-5-2-3-7-9-6-8-2-8-9-7-6"
                   style="font-style:normal;font-variant:normal;font-stretch:normal;font-size:12.99067879px;line-height:125%;font-family:Lato;-inkscape-font-specification:'Lato Semi-Light';letter-spacing:0px;word-spacing:0px;fill:#000000;fill-opacity:1;stroke:none"
                   transform="matrix(0.99928292,0,0,1.0007176,-1486.1348,977.75208)">
                  <path
                     inkscape:connector-curvature="0"
                     id="path7079-2"
                     d="m -1610.7339,-791.00635 -0.9743,0 c -0.1126,0 -0.2035,-0.0281 -0.2728,-0.0844 -0.069,-0.0563 -0.1213,-0.12774 -0.1559,-0.21434 l -0.8704,-2.24739 -4.1765,0 -0.8703,2.24739 c -0.03,0.0779 -0.082,0.14722 -0.1559,0.20785 -0.074,0.0606 -0.1646,0.0909 -0.2728,0.0909 l -0.9743,0 3.7218,-9.30782 1.2796,0 3.7218,9.30782 m -6.0991,-3.45552 3.475,0 -1.4615,-3.78678 c -0.095,-0.23383 -0.1883,-0.52612 -0.2793,-0.87687 -0.048,0.17755 -0.095,0.34209 -0.1429,0.49364 -0.043,0.14724 -0.087,0.27715 -0.1299,0.38972 l -1.4614,3.78029" />
                  <path
                     inkscape:connector-curvature="0"
                     id="path7081-6"
                     d="m -1609.7442,-788.77845 0,-8.80768 0.6885,0 c 0.1646,10e-6 0.2685,0.0801 0.3118,0.24033 l 0.097,0.77944 c 0.2815,-0.34208 0.6019,-0.61705 0.9613,-0.82491 0.3638,-0.20784 0.7817,-0.31177 1.2537,-0.31177 0.3767,0 0.7188,0.0736 1.0262,0.22084 0.3075,0.1429 0.5694,0.35725 0.7859,0.64304 0.2166,0.28147 0.3833,0.63222 0.5002,1.05224 0.1169,0.42004 0.1754,0.90286 0.1754,1.44846 0,0.48499 -0.065,0.9375 -0.1949,1.35753 -0.1299,0.4157 -0.3161,0.77728 -0.5586,1.08472 -0.2425,0.30312 -0.5413,0.54344 -0.8964,0.72098 -0.3507,0.17321 -0.7469,0.25982 -1.1886,0.25982 -0.407,0 -0.7556,-0.0671 -1.0457,-0.20136 -0.2858,-0.13424 -0.5392,-0.32476 -0.76,-0.57159 l 0,2.90991 -1.1562,0 m 2.9294,-7.98926 c -0.3767,0 -0.708,0.0866 -0.9938,0.25981 -0.2814,0.17321 -0.5412,0.41787 -0.7794,0.73397 l 0,3.18272 c 0.2122,0.2858 0.4438,0.48715 0.695,0.60407 0.2555,0.11691 0.5391,0.17537 0.8509,0.17537 0.6105,0 1.0804,-0.21868 1.4095,-0.65603 0.3291,-0.43735 0.4936,-1.0609 0.4936,-1.87066 0,-0.42869 -0.039,-0.79675 -0.1169,-1.1042 -0.074,-0.30745 -0.1819,-0.5586 -0.3248,-0.75346 -0.1429,-0.19919 -0.3182,-0.34425 -0.5261,-0.43519 -0.2078,-0.0909 -0.4438,-0.1364 -0.708,-0.1364" />
                  <path
                     inkscape:connector-curvature="0"
                     id="path7083-1"
                     d="m -1602.5638,-788.77845 0,-8.80768 0.6885,0 c 0.1646,10e-6 0.2685,0.0801 0.3118,0.24033 l 0.097,0.77944 c 0.2815,-0.34208 0.6019,-0.61705 0.9613,-0.82491 0.3638,-0.20784 0.7816,-0.31177 1.2536,-0.31177 0.3768,0 0.7189,0.0736 1.0263,0.22084 0.3074,0.1429 0.5694,0.35725 0.7859,0.64304 0.2165,0.28147 0.3833,0.63222 0.5002,1.05224 0.1169,0.42004 0.1754,0.90286 0.1754,1.44846 0,0.48499 -0.065,0.9375 -0.1949,1.35753 -0.1299,0.4157 -0.3161,0.77728 -0.5586,1.08472 -0.2425,0.30312 -0.5413,0.54344 -0.8964,0.72098 -0.3507,0.17321 -0.7469,0.25982 -1.1886,0.25982 -0.407,0 -0.7556,-0.0671 -1.0458,-0.20136 -0.2858,-0.13424 -0.5391,-0.32476 -0.7599,-0.57159 l 0,2.90991 -1.1562,0 m 2.9294,-7.98926 c -0.3767,0 -0.708,0.0866 -0.9938,0.25981 -0.2814,0.17321 -0.5412,0.41787 -0.7794,0.73397 l 0,3.18272 c 0.2122,0.2858 0.4438,0.48715 0.695,0.60407 0.2555,0.11691 0.5391,0.17537 0.8509,0.17537 0.6105,0 1.0804,-0.21868 1.4095,-0.65603 0.3291,-0.43735 0.4936,-1.0609 0.4936,-1.87066 0,-0.42869 -0.039,-0.79675 -0.1169,-1.1042 -0.074,-0.30745 -0.1819,-0.5586 -0.3248,-0.75346 -0.1429,-0.19919 -0.3182,-0.34425 -0.5261,-0.43519 -0.2078,-0.0909 -0.4438,-0.1364 -0.708,-0.1364" />
                  <path
                     inkscape:connector-curvature="0"
                     id="path7085-7"
                     d="m -1594.0973,-800.57398 0,9.56763 -1.1562,0 0,-9.56763 1.1562,0" />
                  <path
                     inkscape:connector-curvature="0"
                     id="path7087-4"
                     d="m -1590.7735,-797.58613 0,6.57978 -1.1562,0 0,-6.57978 1.1562,0 m 0.2598,-2.06551 c 0,0.11259 -0.024,0.21868 -0.072,0.31827 -0.043,0.0953 -0.1039,0.18187 -0.1818,0.25981 -0.074,0.0736 -0.1602,0.13208 -0.2598,0.17537 -0.1,0.0433 -0.2057,0.065 -0.3183,0.065 -0.1126,10e-6 -0.2187,-0.0216 -0.3183,-0.065 -0.095,-0.0433 -0.1819,-0.10175 -0.2598,-0.17537 -0.074,-0.0779 -0.1321,-0.16454 -0.1754,-0.25981 -0.043,-0.0996 -0.065,-0.20568 -0.065,-0.31827 0,-0.11258 0.022,-0.21867 0.065,-0.31828 0.043,-0.10391 0.1018,-0.19268 0.1754,-0.2663 0.078,-0.0779 0.1646,-0.13856 0.2598,-0.18187 0.1,-0.0433 0.2057,-0.0649 0.3183,-0.065 0.1126,10e-6 0.2187,0.0217 0.3183,0.065 0.1,0.0433 0.1862,0.10393 0.2598,0.18187 0.078,0.0736 0.1385,0.16239 0.1818,0.2663 0.048,0.0996 0.072,0.2057 0.072,0.31828" />
                  <path
                     inkscape:connector-curvature="0"
                     id="path7089-1"
                     d="m -1584.2475,-796.41697 c -0.035,0.0476 -0.069,0.0844 -0.104,0.11043 -0.035,0.026 -0.084,0.039 -0.1493,0.039 -0.065,0 -0.1365,-0.026 -0.2144,-0.0779 -0.074,-0.0563 -0.1689,-0.11691 -0.2858,-0.18187 -0.1169,-0.0649 -0.2598,-0.1234 -0.4287,-0.17537 -0.1645,-0.0563 -0.3681,-0.0844 -0.6105,-0.0844 -0.3205,10e-6 -0.6041,0.0585 -0.8509,0.17537 -0.2469,0.1126 -0.4547,0.27714 -0.6236,0.49365 -0.1645,0.21652 -0.2901,0.47849 -0.3767,0.78594 -0.082,0.30745 -0.1234,0.6517 -0.1234,1.03276 0,0.39838 0.045,0.75346 0.1364,1.06523 0.091,0.30745 0.2186,0.56726 0.3832,0.77944 0.1645,0.20785 0.3637,0.36807 0.5976,0.48066 0.2381,0.10825 0.5044,0.16238 0.7989,0.16238 0.2815,0 0.5131,-0.0325 0.695,-0.0974 0.1819,-0.0693 0.3334,-0.14506 0.4547,-0.22734 0.1212,-0.0823 0.2208,-0.15588 0.2988,-0.22084 0.078,-0.0693 0.1558,-0.10392 0.2338,-0.10392 0.1,0 0.1732,0.0368 0.2208,0.11042 l 0.3248,0.42219 c -0.2858,0.35075 -0.643,0.6084 -1.0717,0.77295 -0.4287,0.16022 -0.8812,0.24033 -1.3576,0.24033 -0.4113,0 -0.7946,-0.0758 -1.1496,-0.22734 -0.3508,-0.15156 -0.6561,-0.37023 -0.9159,-0.65603 -0.2598,-0.29012 -0.4655,-0.6452 -0.617,-1.06523 -0.1473,-0.42003 -0.2209,-0.89852 -0.2209,-1.43547 0,-0.48932 0.067,-0.94182 0.2014,-1.35753 0.1385,-0.4157 0.3377,-0.77294 0.5976,-1.07173 0.2641,-0.30311 0.5889,-0.53911 0.9743,-0.70799 0.3853,-0.16888 0.827,-0.25332 1.325,-0.25332 0.459,0 0.866,0.0758 1.2211,0.22733 0.3551,0.14724 0.669,0.35725 0.9419,0.63005 l -0.3053,0.4157" />
                  <path
                     inkscape:connector-curvature="0"
                     id="path7091-8"
                     d="m -1577.8393,-791.00635 -0.5131,0 c -0.1126,0 -0.2035,-0.0173 -0.2728,-0.052 -0.069,-0.0346 -0.1148,-0.10826 -0.1364,-0.22084 l -0.1299,-0.61056 c -0.1732,0.15589 -0.3421,0.29662 -0.5067,0.42219 -0.1645,0.12125 -0.3377,0.22518 -0.5196,0.31178 -0.1819,0.0823 -0.3767,0.14506 -0.5846,0.18836 -0.2035,0.0433 -0.4308,0.065 -0.682,0.065 -0.2555,0 -0.4958,-0.0346 -0.721,-0.10393 -0.2208,-0.0736 -0.4135,-0.18187 -0.578,-0.32476 -0.1646,-0.1429 -0.2967,-0.32261 -0.3963,-0.53912 -0.095,-0.22084 -0.1429,-0.48065 -0.1428,-0.77944 -10e-5,-0.25981 0.071,-0.5088 0.2143,-0.74696 0.1429,-0.24249 0.3724,-0.45684 0.6885,-0.64304 0.3204,-0.1862 0.7383,-0.33776 1.2536,-0.45467 0.5153,-0.12125 1.1453,-0.19053 1.8901,-0.20786 l 0,-0.51313 c 0,-0.51096 -0.1104,-0.89635 -0.3312,-1.15617 -0.2165,-0.26414 -0.5391,-0.39621 -0.9678,-0.39621 -0.2815,0 -0.5197,0.0368 -0.7145,0.11042 -0.1905,0.0693 -0.3573,0.1494 -0.5001,0.24032 -0.1386,0.0866 -0.2599,0.16672 -0.3638,0.24033 -0.1,0.0693 -0.1992,0.10393 -0.2988,0.10393 -0.078,0 -0.1472,-0.0195 -0.2078,-0.0585 -0.056,-0.0433 -0.1018,-0.0953 -0.1364,-0.15589 l -0.2079,-0.37023 c 0.3638,-0.35075 0.7556,-0.61272 1.1757,-0.78594 0.42,-0.1732 0.8855,-0.25981 1.3965,-0.25981 0.368,0 0.695,0.0606 0.9808,0.18187 0.2858,0.12125 0.5261,0.29013 0.721,0.50663 0.1948,0.21652 0.342,0.4785 0.4416,0.78594 0.1,0.30745 0.1494,0.64521 0.1494,1.01327 l 0,4.20898 m -3.0008,-0.70799 c 0.2035,0 0.3897,-0.0195 0.5586,-0.0585 0.1689,-0.0433 0.3269,-0.10176 0.4741,-0.17537 0.1516,-0.0779 0.2945,-0.17104 0.4287,-0.2793 0.1386,-0.10826 0.2728,-0.23167 0.4027,-0.37024 l 0,-1.37051 c -0.5326,0.0173 -0.9851,0.0606 -1.3575,0.1299 -0.3724,0.065 -0.6755,0.15156 -0.9093,0.25982 -0.2339,0.10826 -0.4049,0.236 -0.5132,0.38322 -0.1039,0.14723 -0.1558,0.31178 -0.1558,0.49365 0,0.17321 0.028,0.3226 0.084,0.44818 0.056,0.12557 0.1321,0.2295 0.2273,0.31177 0.095,0.0779 0.2079,0.13641 0.3378,0.17538 0.1299,0.0346 0.2706,0.052 0.4222,0.052" />
                  <path
                     inkscape:connector-curvature="0"
                     id="path7093-3"
                     d="m -1574.0809,-790.90242 c -0.5196,0 -0.9202,-0.14506 -1.2016,-0.43519 -0.2772,-0.29012 -0.4157,-0.70799 -0.4157,-1.2536 l 0,-4.02711 -0.7925,0 c -0.069,0 -0.1277,-0.0195 -0.1753,-0.0585 -0.048,-0.0433 -0.072,-0.10825 -0.072,-0.19486 l 0,-0.46117 1.0782,-0.1364 0.2663,-2.03304 c 0.01,-0.0649 0.037,-0.11691 0.084,-0.15589 0.048,-0.0433 0.1082,-0.0649 0.1818,-0.0649 l 0.5846,0 0,2.26687 1.8837,0 0,0.8379 -1.8837,0 0,3.94917 c 0,0.27713 0.067,0.48282 0.2014,0.61705 0.1342,0.13424 0.3074,0.20136 0.5196,0.20136 0.1213,0 0.2252,-0.0152 0.3118,-0.0455 0.091,-0.0346 0.1689,-0.0715 0.2338,-0.11042 0.065,-0.039 0.1191,-0.0736 0.1624,-0.10393 0.048,-0.0346 0.089,-0.052 0.1234,-0.052 0.061,0 0.1148,0.0368 0.1624,0.11042 l 0.3378,0.55211 c -0.1992,0.1862 -0.4396,0.33342 -0.721,0.44168 -0.2815,0.10393 -0.5716,0.15589 -0.8704,0.15589" />
                  <path
                     inkscape:connector-curvature="0"
                     id="path7095-7"
                     d="m -1569.9428,-797.58613 0,6.57978 -1.1561,0 0,-6.57978 1.1561,0 m 0.2599,-2.06551 c -10e-5,0.11259 -0.024,0.21868 -0.072,0.31827 -0.043,0.0953 -0.1039,0.18187 -0.1819,0.25981 -0.074,0.0736 -0.1602,0.13208 -0.2598,0.17537 -0.1,0.0433 -0.2057,0.065 -0.3183,0.065 -0.1125,10e-6 -0.2186,-0.0216 -0.3182,-0.065 -0.095,-0.0433 -0.1819,-0.10175 -0.2598,-0.17537 -0.074,-0.0779 -0.1321,-0.16454 -0.1754,-0.25981 -0.043,-0.0996 -0.065,-0.20568 -0.065,-0.31827 0,-0.11258 0.022,-0.21867 0.065,-0.31828 0.043,-0.10391 0.1017,-0.19268 0.1754,-0.2663 0.078,-0.0779 0.1645,-0.13856 0.2598,-0.18187 0.1,-0.0433 0.2057,-0.0649 0.3182,-0.065 0.1126,10e-6 0.2187,0.0217 0.3183,0.065 0.1,0.0433 0.1862,0.10393 0.2598,0.18187 0.078,0.0736 0.1386,0.16239 0.1819,0.2663 0.048,0.0996 0.071,0.2057 0.072,0.31828" />
                  <path
                     inkscape:connector-curvature="0"
                     id="path7097-7"
                     d="m -1565.242,-797.69005 c 0.4807,0 0.9137,0.0801 1.2991,0.24033 0.3897,0.16022 0.7188,0.38756 0.9873,0.68201 0.2728,0.29446 0.4806,0.6517 0.6235,1.07173 0.1473,0.4157 0.2209,0.8812 0.2209,1.3965 0,0.51963 -0.074,0.98729 -0.2209,1.40299 -0.1429,0.4157 -0.3507,0.77078 -0.6235,1.06523 -0.2685,0.29446 -0.5976,0.5218 -0.9873,0.68201 -0.3854,0.15589 -0.8184,0.23384 -1.2991,0.23384 -0.4806,0 -0.9158,-0.078 -1.3055,-0.23384 -0.3854,-0.16021 -0.7145,-0.38755 -0.9873,-0.68201 -0.2728,-0.29445 -0.4828,-0.64953 -0.6301,-1.06523 -0.1472,-0.4157 -0.2208,-0.88336 -0.2208,-1.40299 0,-0.5153 0.074,-0.9808 0.2208,-1.3965 0.1473,-0.42003 0.3573,-0.77727 0.6301,-1.07173 0.2728,-0.29445 0.6019,-0.52179 0.9873,-0.68201 0.3897,-0.16022 0.8249,-0.24033 1.3055,-0.24033 m 0,5.87178 c 0.6496,10e-6 1.1345,-0.21651 1.455,-0.64953 0.3204,-0.43735 0.4806,-1.04575 0.4806,-1.82519 0,-0.78377 -0.1602,-1.39433 -0.4806,-1.83169 -0.3205,-0.43734 -0.8054,-0.65602 -1.455,-0.65602 -0.3291,0 -0.6149,0.0563 -0.8574,0.16887 -0.2424,0.1126 -0.446,0.27498 -0.6105,0.48715 -0.1602,0.21219 -0.2815,0.47417 -0.3638,0.78594 -0.078,0.30745 -0.1169,0.65603 -0.1169,1.04575 0,0.38972 0.039,0.73831 0.1169,1.04575 0.082,0.30745 0.2036,0.56726 0.3638,0.77944 0.1645,0.20785 0.3681,0.36807 0.6105,0.48066 0.2425,0.11258 0.5283,0.16888 0.8574,0.16887" />
                  <path
                     inkscape:connector-curvature="0"
                     id="path7099-9"
                     d="m -1560.6739,-791.00635 0,-6.57978 0.6885,0 c 0.1645,10e-6 0.2685,0.0801 0.3118,0.24033 l 0.091,0.71449 c 0.2858,-0.3161 0.6041,-0.57159 0.9548,-0.76645 0.3551,-0.19486 0.7643,-0.29229 1.2276,-0.29229 0.3594,0 0.6755,0.0606 0.9484,0.18187 0.2771,0.11692 0.5066,0.2858 0.6885,0.50663 0.1862,0.21652 0.3269,0.4785 0.4222,0.78594 0.095,0.30745 0.1428,0.64737 0.1429,1.01977 l 0,4.18949 -1.1562,0 0,-4.18949 c 0,-0.49797 -0.1148,-0.88336 -0.3443,-1.15617 -0.2251,-0.27713 -0.5716,-0.4157 -1.0392,-0.4157 -0.3421,0 -0.6625,0.0823 -0.9613,0.24682 -0.2945,0.16455 -0.5673,0.38756 -0.8184,0.66902 l 0,4.84552 -1.1562,0" />
                  <path
                     inkscape:connector-curvature="0"
                     id="path7101-9"
                     d="m -1546.2997,-791.00635 c -0.1646,0 -0.2685,-0.0801 -0.3118,-0.24033 l -0.1039,-0.79892 c -0.2815,0.34209 -0.6041,0.61706 -0.9678,0.82491 -0.3595,0.20352 -0.773,0.30528 -1.2406,0.30528 -0.3768,0 -0.7189,-0.0715 -1.0263,-0.21435 -0.3075,-0.14723 -0.5694,-0.36157 -0.7859,-0.64304 -0.2166,-0.28146 -0.3833,-0.63221 -0.5002,-1.05224 -0.1169,-0.42003 -0.1754,-0.90285 -0.1754,-1.44846 0,-0.48498 0.065,-0.93533 0.1949,-1.35103 0.1299,-0.42003 0.3161,-0.78377 0.5586,-1.09122 0.2468,-0.30744 0.5456,-0.54777 0.8964,-0.72098 0.3507,-0.17754 0.7491,-0.26631 1.1951,-0.26631 0.4027,0 0.747,0.0693 1.0328,0.20785 0.2857,0.13424 0.5412,0.32477 0.7664,0.57159 l 0,-3.65038 1.1562,0 0,9.56763 -0.6885,0 m -2.2409,-0.84439 c 0.3767,0 0.7058,-0.0866 0.9873,-0.25982 0.2858,-0.1732 0.5477,-0.41786 0.7859,-0.73397 l 0,-3.18272 c -0.2122,-0.28578 -0.446,-0.48497 -0.7015,-0.59757 -0.2511,-0.11691 -0.5304,-0.17536 -0.8379,-0.17537 -0.6149,1e-5 -1.0869,0.21868 -1.416,0.65603 -0.3291,0.43736 -0.4936,1.06091 -0.4936,1.87066 0,0.42869 0.037,0.79676 0.1104,1.1042 0.074,0.30312 0.1819,0.55427 0.3248,0.75346 0.1429,0.19487 0.3182,0.33776 0.5261,0.4287 0.2078,0.0909 0.446,0.1364 0.7145,0.1364" />
                  <path
                     inkscape:connector-curvature="0"
                     id="path7103-4"
                     d="m -1541.0698,-797.69005 c 0.3941,0 0.7578,0.0671 1.0913,0.20135 0.3334,0.12992 0.6213,0.32045 0.8638,0.57159 0.2425,0.24683 0.4309,0.55428 0.5651,0.92234 0.1386,0.36375 0.2079,0.77945 0.2079,1.24711 0,0.18187 -0.02,0.30312 -0.059,0.36374 -0.039,0.0606 -0.1126,0.0909 -0.2208,0.0909 l -4.3779,0 c 0.01,0.41571 0.065,0.77728 0.1689,1.08472 0.1039,0.30745 0.2468,0.5651 0.4287,0.77295 0.1819,0.20352 0.3984,0.35724 0.6495,0.46117 0.2512,0.0996 0.5326,0.14939 0.8444,0.14939 0.2901,0 0.5391,-0.0325 0.747,-0.0974 0.2122,-0.0693 0.394,-0.1429 0.5456,-0.22084 0.1515,-0.0779 0.2771,-0.14939 0.3767,-0.21435 0.1039,-0.0693 0.1927,-0.10392 0.2663,-0.10392 0.095,0 0.1689,0.0368 0.2209,0.11042 l 0.3247,0.42219 c -0.1429,0.17321 -0.3139,0.32477 -0.5131,0.45468 -0.1992,0.12557 -0.4135,0.2295 -0.643,0.31177 -0.2252,0.0823 -0.459,0.1429 -0.7015,0.18187 -0.2425,0.0433 -0.4828,0.065 -0.721,0.065 -0.4547,0 -0.8747,-0.0758 -1.2601,-0.22734 -0.3811,-0.15589 -0.7123,-0.38106 -0.9938,-0.67552 -0.2771,-0.29878 -0.4936,-0.66685 -0.6495,-1.1042 -0.1559,-0.43735 -0.2339,-0.93966 -0.2339,-1.50692 0,-0.459 0.069,-0.88769 0.2079,-1.28608 0.1429,-0.39837 0.3464,-0.74263 0.6106,-1.03276 0.2641,-0.29445 0.5867,-0.52395 0.9678,-0.6885 0.381,-0.16888 0.8097,-0.25332 1.286,-0.25332 m 0.026,0.85089 c -0.5586,0 -0.9981,0.16239 -1.3185,0.48715 -0.3205,0.32044 -0.5197,0.76645 -0.5976,1.33804 l 3.5789,0 c 0,-0.26847 -0.037,-0.51313 -0.1104,-0.73398 -0.074,-0.22516 -0.1819,-0.41786 -0.3248,-0.57808 -0.1429,-0.16454 -0.3182,-0.29012 -0.5261,-0.37673 -0.2035,-0.0909 -0.4373,-0.1364 -0.7015,-0.1364" />
                  <path
                     inkscape:connector-curvature="0"
                     id="path7105-3"
                     d="m -1537.8836,-797.58613 0.9483,0 c 0.091,10e-6 0.1667,0.0238 0.2274,0.0715 0.061,0.0476 0.1039,0.10393 0.1299,0.16888 l 1.6693,4.23496 c 0.061,0.15589 0.1082,0.31178 0.1429,0.46767 0.035,0.15589 0.067,0.30961 0.097,0.46117 0.035,-0.15156 0.071,-0.30528 0.1104,-0.46117 0.039,-0.15589 0.089,-0.31178 0.1494,-0.46767 l 1.6888,-4.23496 c 0.026,-0.0693 0.067,-0.12557 0.1234,-0.16888 0.061,-0.0476 0.1342,-0.0714 0.2209,-0.0715 l 0.9028,0 -2.6826,6.57978 -1.0457,0 -2.6826,-6.57978" />
                  <path
                     inkscape:connector-curvature="0"
                     id="path7107-8"
                     d="m -1527.9776,-797.69005 c 0.3941,0 0.7578,0.0671 1.0912,0.20135 0.3334,0.12992 0.6214,0.32045 0.8639,0.57159 0.2425,0.24683 0.4309,0.55428 0.5651,0.92234 0.1386,0.36375 0.2078,0.77945 0.2079,1.24711 -1e-4,0.18187 -0.02,0.30312 -0.059,0.36374 -0.039,0.0606 -0.1126,0.0909 -0.2208,0.0909 l -4.3779,0 c 0.01,0.41571 0.065,0.77728 0.1689,1.08472 0.1039,0.30745 0.2468,0.5651 0.4287,0.77295 0.1818,0.20352 0.3983,0.35724 0.6495,0.46117 0.2511,0.0996 0.5326,0.14939 0.8444,0.14939 0.2901,0 0.5391,-0.0325 0.747,-0.0974 0.2121,-0.0693 0.394,-0.1429 0.5456,-0.22084 0.1515,-0.0779 0.2771,-0.14939 0.3767,-0.21435 0.1039,-0.0693 0.1927,-0.10392 0.2663,-0.10392 0.095,0 0.1689,0.0368 0.2208,0.11042 l 0.3248,0.42219 c -0.1429,0.17321 -0.3139,0.32477 -0.5131,0.45468 -0.1992,0.12557 -0.4136,0.2295 -0.6431,0.31177 -0.2251,0.0823 -0.459,0.1429 -0.7015,0.18187 -0.2425,0.0433 -0.4828,0.065 -0.7209,0.065 -0.4547,0 -0.8747,-0.0758 -1.2601,-0.22734 -0.3811,-0.15589 -0.7124,-0.38106 -0.9938,-0.67552 -0.2772,-0.29878 -0.4937,-0.66685 -0.6496,-1.1042 -0.1558,-0.43735 -0.2338,-0.93966 -0.2338,-1.50692 0,-0.459 0.069,-0.88769 0.2079,-1.28608 0.1429,-0.39837 0.3464,-0.74263 0.6105,-1.03276 0.2642,-0.29445 0.5868,-0.52395 0.9678,-0.6885 0.3811,-0.16888 0.8098,-0.25332 1.2861,-0.25332 m 0.026,0.85089 c -0.5586,0 -0.9981,0.16239 -1.3186,0.48715 -0.3204,0.32044 -0.5196,0.76645 -0.5975,1.33804 l 3.5789,0 c 0,-0.26847 -0.037,-0.51313 -0.1104,-0.73398 -0.074,-0.22516 -0.1819,-0.41786 -0.3248,-0.57808 -0.1429,-0.16454 -0.3183,-0.29012 -0.5261,-0.37673 -0.2035,-0.0909 -0.4374,-0.1364 -0.7015,-0.1364" />
                  <path
                     inkscape:connector-curvature="0"
                     id="path7109-8"
                     d="m -1522.4963,-800.57398 0,9.56763 -1.1562,0 0,-9.56763 1.1562,0" />
                  <path
                     inkscape:connector-curvature="0"
                     id="path7111-0"
                     d="m -1517.7955,-797.69005 c 0.4806,0 0.9136,0.0801 1.299,0.24033 0.3897,0.16022 0.7188,0.38756 0.9873,0.68201 0.2728,0.29446 0.4807,0.6517 0.6236,1.07173 0.1472,0.4157 0.2208,0.8812 0.2208,1.3965 0,0.51963 -0.074,0.98729 -0.2208,1.40299 -0.1429,0.4157 -0.3508,0.77078 -0.6236,1.06523 -0.2685,0.29446 -0.5976,0.5218 -0.9873,0.68201 -0.3854,0.15589 -0.8184,0.23384 -1.299,0.23384 -0.4807,0 -0.9159,-0.078 -1.3056,-0.23384 -0.3854,-0.16021 -0.7145,-0.38755 -0.9873,-0.68201 -0.2728,-0.29445 -0.4828,-0.64953 -0.63,-1.06523 -0.1473,-0.4157 -0.2209,-0.88336 -0.2209,-1.40299 0,-0.5153 0.074,-0.9808 0.2209,-1.3965 0.1472,-0.42003 0.3572,-0.77727 0.63,-1.07173 0.2728,-0.29445 0.6019,-0.52179 0.9873,-0.68201 0.3897,-0.16022 0.8249,-0.24033 1.3056,-0.24033 m 0,5.87178 c 0.6495,10e-6 1.1345,-0.21651 1.4549,-0.64953 0.3204,-0.43735 0.4807,-1.04575 0.4807,-1.82519 0,-0.78377 -0.1603,-1.39433 -0.4807,-1.83169 -0.3204,-0.43734 -0.8054,-0.65602 -1.4549,-0.65602 -0.3291,0 -0.6149,0.0563 -0.8574,0.16887 -0.2425,0.1126 -0.446,0.27498 -0.6106,0.48715 -0.1602,0.21219 -0.2815,0.47417 -0.3637,0.78594 -0.078,0.30745 -0.1169,0.65603 -0.1169,1.04575 0,0.38972 0.039,0.73831 0.1169,1.04575 0.082,0.30745 0.2035,0.56726 0.3637,0.77944 0.1646,0.20785 0.3681,0.36807 0.6106,0.48066 0.2425,0.11258 0.5283,0.16888 0.8574,0.16887" />
                  <path
                     inkscape:connector-curvature="0"
                     id="path7113-12"
                     d="m -1513.2275,-788.77845 0,-8.80768 0.6885,0 c 0.1646,10e-6 0.2685,0.0801 0.3118,0.24033 l 0.097,0.77944 c 0.2815,-0.34208 0.6019,-0.61705 0.9613,-0.82491 0.3638,-0.20784 0.7816,-0.31177 1.2536,-0.31177 0.3768,0 0.7188,0.0736 1.0263,0.22084 0.3074,0.1429 0.5694,0.35725 0.7859,0.64304 0.2165,0.28147 0.3832,0.63222 0.5002,1.05224 0.1169,0.42004 0.1753,0.90286 0.1753,1.44846 0,0.48499 -0.065,0.9375 -0.1948,1.35753 -0.1299,0.4157 -0.3161,0.77728 -0.5586,1.08472 -0.2425,0.30312 -0.5413,0.54344 -0.8964,0.72098 -0.3507,0.17321 -0.7469,0.25982 -1.1886,0.25982 -0.4071,0 -0.7556,-0.0671 -1.0458,-0.20136 -0.2858,-0.13424 -0.5391,-0.32476 -0.7599,-0.57159 l 0,2.90991 -1.1562,0 m 2.9294,-7.98926 c -0.3767,0 -0.708,0.0866 -0.9938,0.25981 -0.2814,0.17321 -0.5413,0.41787 -0.7794,0.73397 l 0,3.18272 c 0.2122,0.2858 0.4438,0.48715 0.695,0.60407 0.2555,0.11691 0.5391,0.17537 0.8509,0.17537 0.6105,0 1.0804,-0.21868 1.4095,-0.65603 0.329,-0.43735 0.4936,-1.0609 0.4936,-1.87066 0,-0.42869 -0.039,-0.79675 -0.1169,-1.1042 -0.074,-0.30745 -0.1819,-0.5586 -0.3248,-0.75346 -0.1429,-0.19919 -0.3183,-0.34425 -0.5261,-0.43519 -0.2079,-0.0909 -0.4439,-0.1364 -0.708,-0.1364" />
                  <path
                     inkscape:connector-curvature="0"
                     id="path7115-2"
                     d="m -1506.0471,-791.00635 0,-6.57978 0.6885,0 c 0.1646,10e-6 0.2685,0.0801 0.3118,0.24033 l 0.084,0.67552 c 0.2425,-0.29878 0.5132,-0.54344 0.8119,-0.73398 0.3032,-0.19052 0.6539,-0.28579 1.0523,-0.28579 0.446,0 0.8054,0.12342 1.0782,0.37023 0.2771,0.24683 0.4763,0.58026 0.5976,1.00028 0.091,-0.23815 0.21,-0.44384 0.3572,-0.61705 0.1516,-0.17321 0.3205,-0.3161 0.5067,-0.42869 0.1862,-0.11258 0.3832,-0.19486 0.591,-0.24683 0.2122,-0.0519 0.4266,-0.0779 0.6431,-0.0779 0.3464,0 0.6538,0.0563 0.9223,0.16888 0.2728,0.10826 0.5023,0.26848 0.6885,0.48065 0.1905,0.21219 0.3356,0.47417 0.4352,0.78594 0.1,0.30745 0.1494,0.66036 0.1494,1.05874 l 0,4.18949 -1.1562,0 0,-4.18949 c 0,-0.51529 -0.1126,-0.90501 -0.3377,-1.16916 -0.2252,-0.26847 -0.5521,-0.40271 -0.9808,-0.40271 -0.1906,0 -0.3724,0.0346 -0.5456,0.10392 -0.1689,0.065 -0.3183,0.16239 -0.4482,0.29229 -0.1299,0.12991 -0.2338,0.29446 -0.3118,0.49365 -0.074,0.19486 -0.1104,0.4222 -0.1104,0.68201 l 0,4.18949 -1.1562,0 0,-4.18949 c 0,-0.52828 -0.1061,-0.92233 -0.3182,-1.18215 -0.2122,-0.25981 -0.5218,-0.38972 -0.9289,-0.38972 -0.2858,0 -0.5521,0.0779 -0.7989,0.23383 -0.2425,0.15156 -0.4655,0.35941 -0.669,0.62355 l 0,4.90398 -1.1562,0" />
                  <path
                     inkscape:connector-curvature="0"
                     id="path7117-0"
                     d="m -1492.786,-797.69005 c 0.394,0 0.7577,0.0671 1.0912,0.20135 0.3334,0.12992 0.6214,0.32045 0.8639,0.57159 0.2424,0.24683 0.4308,0.55428 0.565,0.92234 0.1386,0.36375 0.2079,0.77945 0.2079,1.24711 0,0.18187 -0.02,0.30312 -0.059,0.36374 -0.039,0.0606 -0.1126,0.0909 -0.2208,0.0909 l -4.3779,0 c 0.01,0.41571 0.065,0.77728 0.1689,1.08472 0.1039,0.30745 0.2468,0.5651 0.4287,0.77295 0.1819,0.20352 0.3984,0.35724 0.6495,0.46117 0.2512,0.0996 0.5327,0.14939 0.8444,0.14939 0.2902,0 0.5391,-0.0325 0.747,-0.0974 0.2122,-0.0693 0.394,-0.1429 0.5456,-0.22084 0.1516,-0.0779 0.2771,-0.14939 0.3767,-0.21435 0.104,-0.0693 0.1927,-0.10392 0.2663,-0.10392 0.095,0 0.1689,0.0368 0.2209,0.11042 l 0.3248,0.42219 c -0.1429,0.17321 -0.314,0.32477 -0.5132,0.45468 -0.1992,0.12557 -0.4135,0.2295 -0.643,0.31177 -0.2252,0.0823 -0.459,0.1429 -0.7015,0.18187 -0.2425,0.0433 -0.4828,0.065 -0.721,0.065 -0.4547,0 -0.8747,-0.0758 -1.2601,-0.22734 -0.3811,-0.15589 -0.7123,-0.38106 -0.9938,-0.67552 -0.2771,-0.29878 -0.4936,-0.66685 -0.6495,-1.1042 -0.1559,-0.43735 -0.2338,-0.93966 -0.2338,-1.50692 0,-0.459 0.069,-0.88769 0.2078,-1.28608 0.1429,-0.39837 0.3464,-0.74263 0.6106,-1.03276 0.2641,-0.29445 0.5867,-0.52395 0.9678,-0.6885 0.381,-0.16888 0.8097,-0.25332 1.2861,-0.25332 m 0.026,0.85089 c -0.5586,0 -0.9981,0.16239 -1.3185,0.48715 -0.3205,0.32044 -0.5196,0.76645 -0.5976,1.33804 l 3.5789,0 c 0,-0.26847 -0.037,-0.51313 -0.1104,-0.73398 -0.074,-0.22516 -0.1819,-0.41786 -0.3247,-0.57808 -0.1429,-0.16454 -0.3183,-0.29012 -0.5262,-0.37673 -0.2035,-0.0909 -0.4373,-0.1364 -0.7015,-0.1364" />
                  <path
                     inkscape:connector-curvature="0"
                     id="path7119-8"
                     d="m -1488.5909,-791.00635 0,-6.57978 0.6885,0 c 0.1646,10e-6 0.2685,0.0801 0.3118,0.24033 l 0.091,0.71449 c 0.2857,-0.3161 0.604,-0.57159 0.9548,-0.76645 0.355,-0.19486 0.7642,-0.29229 1.2276,-0.29229 0.3594,0 0.6755,0.0606 0.9483,0.18187 0.2771,0.11692 0.5066,0.2858 0.6885,0.50663 0.1862,0.21652 0.3269,0.4785 0.4222,0.78594 0.095,0.30745 0.1429,0.64737 0.1429,1.01977 l 0,4.18949 -1.1562,0 0,-4.18949 c 0,-0.49797 -0.1147,-0.88336 -0.3442,-1.15617 -0.2252,-0.27713 -0.5716,-0.4157 -1.0393,-0.4157 -0.3421,0 -0.6625,0.0823 -0.9613,0.24682 -0.2944,0.16455 -0.5672,0.38756 -0.8184,0.66902 l 0,4.84552 -1.1562,0" />
                  <path
                     inkscape:connector-curvature="0"
                     id="path7121-7"
                     d="m -1479.3657,-790.90242 c -0.5196,0 -0.9201,-0.14506 -1.2016,-0.43519 -0.2771,-0.29012 -0.4157,-0.70799 -0.4157,-1.2536 l 0,-4.02711 -0.7924,0 c -0.069,0 -0.1278,-0.0195 -0.1754,-0.0585 -0.048,-0.0433 -0.071,-0.10825 -0.071,-0.19486 l 0,-0.46117 1.0782,-0.1364 0.2663,-2.03304 c 0.01,-0.0649 0.037,-0.11691 0.084,-0.15589 0.048,-0.0433 0.1083,-0.0649 0.1819,-0.0649 l 0.5846,0 0,2.26687 1.8836,0 0,0.8379 -1.8836,0 0,3.94917 c 0,0.27713 0.067,0.48282 0.2013,0.61705 0.1343,0.13424 0.3075,0.20136 0.5197,0.20136 0.1212,0 0.2251,-0.0152 0.3117,-0.0455 0.091,-0.0346 0.1689,-0.0715 0.2339,-0.11042 0.065,-0.039 0.119,-0.0736 0.1623,-0.10393 0.048,-0.0346 0.089,-0.052 0.1235,-0.052 0.061,0 0.1147,0.0368 0.1623,0.11042 l 0.3378,0.55211 c -0.1992,0.1862 -0.4395,0.33342 -0.721,0.44168 -0.2814,0.10393 -0.5716,0.15589 -0.8704,0.15589" />
                </g>
                <g
                   id="text3229-9-0-5-5-2-3-7-9-6-8-8-3-2-5-3-7"
                   style="font-style:normal;font-variant:normal;font-stretch:normal;font-size:12.99067879px;line-height:125%;font-family:Lato;-inkscape-font-specification:'Lato Semi-Light';letter-spacing:0px;word-spacing:0px;fill:#000000;fill-opacity:1;stroke:none"
                   transform="matrix(0.99928292,0,0,1.0007176,-1486.1348,952.37892)">
                  <path
                     inkscape:connector-curvature="0"
                     id="path7125-6"
                     d="m -1613.3916,-743.48541 -0.9743,0 c -0.1126,0 -0.2035,-0.0281 -0.2728,-0.0844 -0.069,-0.0563 -0.1213,-0.12774 -0.1559,-0.21435 l -0.8704,-2.24739 -4.1765,0 -0.8704,2.24739 c -0.03,0.078 -0.082,0.14723 -0.1559,0.20785 -0.074,0.0606 -0.1645,0.0909 -0.2728,0.0909 l -0.9743,0 3.7219,-9.30782 1.2796,0 3.7218,9.30782 m -6.0991,-3.45552 3.475,0 -1.4615,-3.78679 c -0.095,-0.23382 -0.1884,-0.52611 -0.2793,-0.87687 -0.048,0.17755 -0.095,0.3421 -0.1429,0.49365 -0.043,0.14723 -0.087,0.27714 -0.1299,0.38972 l -1.4614,3.78029" />
                  <path
                     inkscape:connector-curvature="0"
                     id="path7127-5"
                     d="m -1612.4019,-741.25751 0,-8.80768 0.6885,0 c 0.1646,10e-6 0.2685,0.0801 0.3118,0.24033 l 0.097,0.77944 c 0.2815,-0.34209 0.6019,-0.61705 0.9613,-0.82491 0.3638,-0.20785 0.7816,-0.31177 1.2536,-0.31178 0.3768,10e-6 0.7188,0.0736 1.0263,0.22084 0.3074,0.14291 0.5694,0.35725 0.7859,0.64304 0.2165,0.28147 0.3833,0.63222 0.5002,1.05225 0.1169,0.42003 0.1753,0.90285 0.1754,1.44846 -1e-4,0.48499 -0.065,0.93749 -0.1949,1.35752 -0.1299,0.41571 -0.3161,0.77728 -0.5586,1.08473 -0.2425,0.30311 -0.5413,0.54344 -0.8964,0.72098 -0.3507,0.17321 -0.7469,0.25981 -1.1886,0.25981 -0.4071,0 -0.7556,-0.0671 -1.0458,-0.20135 -0.2858,-0.13424 -0.5391,-0.32477 -0.7599,-0.57159 l 0,2.90991 -1.1562,0 m 2.9294,-7.98927 c -0.3767,10e-6 -0.708,0.0866 -0.9938,0.25981 -0.2814,0.17322 -0.5413,0.41788 -0.7794,0.73398 l 0,3.18271 c 0.2122,0.2858 0.4438,0.48716 0.695,0.60407 0.2555,0.11692 0.5391,0.17538 0.8509,0.17538 0.6105,0 1.0804,-0.21868 1.4095,-0.65603 0.3291,-0.43735 0.4936,-1.06091 0.4936,-1.87066 0,-0.42869 -0.039,-0.79676 -0.1169,-1.10421 -0.074,-0.30744 -0.1819,-0.55859 -0.3248,-0.75346 -0.1429,-0.19918 -0.3183,-0.34425 -0.5261,-0.43519 -0.2079,-0.0909 -0.4439,-0.13639 -0.708,-0.1364" />
                  <path
                     inkscape:connector-curvature="0"
                     id="path7129-3"
                     d="m -1605.2215,-741.25751 0,-8.80768 0.6885,0 c 0.1646,10e-6 0.2685,0.0801 0.3118,0.24033 l 0.097,0.77944 c 0.2815,-0.34209 0.6019,-0.61705 0.9613,-0.82491 0.3638,-0.20785 0.7816,-0.31177 1.2536,-0.31178 0.3768,10e-6 0.7188,0.0736 1.0263,0.22084 0.3074,0.14291 0.5694,0.35725 0.7859,0.64304 0.2165,0.28147 0.3832,0.63222 0.5002,1.05225 0.1169,0.42003 0.1753,0.90285 0.1753,1.44846 0,0.48499 -0.065,0.93749 -0.1948,1.35752 -0.1299,0.41571 -0.3161,0.77728 -0.5586,1.08473 -0.2425,0.30311 -0.5413,0.54344 -0.8964,0.72098 -0.3507,0.17321 -0.7469,0.25981 -1.1886,0.25981 -0.4071,0 -0.7556,-0.0671 -1.0458,-0.20135 -0.2858,-0.13424 -0.5391,-0.32477 -0.7599,-0.57159 l 0,2.90991 -1.1562,0 m 2.9294,-7.98927 c -0.3767,10e-6 -0.708,0.0866 -0.9938,0.25981 -0.2814,0.17322 -0.5413,0.41788 -0.7794,0.73398 l 0,3.18271 c 0.2122,0.2858 0.4438,0.48716 0.695,0.60407 0.2555,0.11692 0.5391,0.17538 0.8509,0.17538 0.6105,0 1.0804,-0.21868 1.4095,-0.65603 0.329,-0.43735 0.4936,-1.06091 0.4936,-1.87066 0,-0.42869 -0.039,-0.79676 -0.1169,-1.10421 -0.074,-0.30744 -0.1819,-0.55859 -0.3248,-0.75346 -0.1429,-0.19918 -0.3183,-0.34425 -0.5261,-0.43519 -0.2079,-0.0909 -0.4439,-0.13639 -0.708,-0.1364" />
                  <path
                     inkscape:connector-curvature="0"
                     id="path7131-2"
                     d="m -1596.755,-753.05305 0,9.56764 -1.1562,0 0,-9.56764 1.1562,0" />
                  <path
                     inkscape:connector-curvature="0"
                     id="path7133-1"
                     d="m -1593.4312,-750.06519 0,6.57978 -1.1562,0 0,-6.57978 1.1562,0 m 0.2598,-2.06552 c 0,0.1126 -0.024,0.21869 -0.072,0.31827 -0.043,0.0953 -0.1039,0.18188 -0.1818,0.25982 -0.074,0.0736 -0.1603,0.13208 -0.2599,0.17537 -0.1,0.0433 -0.2056,0.065 -0.3182,0.0649 -0.1126,1e-5 -0.2187,-0.0216 -0.3183,-0.0649 -0.095,-0.0433 -0.1819,-0.10175 -0.2598,-0.17537 -0.074,-0.0779 -0.1321,-0.16454 -0.1754,-0.25982 -0.043,-0.0996 -0.065,-0.20567 -0.065,-0.31827 0,-0.11258 0.022,-0.21867 0.065,-0.31827 0.043,-0.10392 0.1018,-0.19269 0.1754,-0.26631 0.078,-0.0779 0.1645,-0.13856 0.2598,-0.18187 0.1,-0.0433 0.2057,-0.0649 0.3183,-0.065 0.1126,1e-5 0.2187,0.0217 0.3182,0.065 0.1,0.0433 0.1862,0.10394 0.2599,0.18187 0.078,0.0736 0.1385,0.16239 0.1818,0.26631 0.048,0.0996 0.072,0.20569 0.072,0.31827" />
                  <path
                     inkscape:connector-curvature="0"
                     id="path7135-9"
                     d="m -1586.9052,-748.89603 c -0.035,0.0476 -0.069,0.0844 -0.104,0.11042 -0.035,0.026 -0.084,0.039 -0.1494,0.039 -0.065,1e-5 -0.1364,-0.026 -0.2143,-0.0779 -0.074,-0.0563 -0.1689,-0.11691 -0.2858,-0.18187 -0.1169,-0.065 -0.2598,-0.12341 -0.4287,-0.17538 -0.1645,-0.0563 -0.3681,-0.0844 -0.6106,-0.0844 -0.3204,0 -0.604,0.0585 -0.8508,0.17537 -0.2469,0.11259 -0.4547,0.27714 -0.6236,0.49365 -0.1646,0.21651 -0.2901,0.47849 -0.3767,0.78593 -0.082,0.30745 -0.1234,0.6517 -0.1234,1.03276 0,0.39838 0.045,0.75346 0.1364,1.06524 0.091,0.30744 0.2186,0.56726 0.3832,0.77944 0.1645,0.20785 0.3637,0.36807 0.5976,0.48065 0.2381,0.10826 0.5044,0.16239 0.7989,0.16239 0.2814,0 0.5131,-0.0325 0.695,-0.0974 0.1818,-0.0693 0.3334,-0.14507 0.4547,-0.22734 0.1212,-0.0823 0.2208,-0.15589 0.2987,-0.22084 0.078,-0.0693 0.1559,-0.10393 0.2339,-0.10393 0.1,0 0.1732,0.0368 0.2208,0.11042 l 0.3248,0.4222 c -0.2858,0.35075 -0.6431,0.6084 -1.0717,0.77294 -0.4287,0.16022 -0.8813,0.24033 -1.3576,0.24033 -0.4113,0 -0.7946,-0.0758 -1.1496,-0.22733 -0.3508,-0.15156 -0.6561,-0.37024 -0.9159,-0.65603 -0.2598,-0.29013 -0.4655,-0.64521 -0.617,-1.06524 -0.1473,-0.42003 -0.2209,-0.89852 -0.2209,-1.43547 0,-0.48931 0.067,-0.94182 0.2014,-1.35753 0.1385,-0.41569 0.3377,-0.77294 0.5975,-1.07173 0.2642,-0.30311 0.5889,-0.5391 0.9743,-0.70799 0.3854,-0.16887 0.8271,-0.25331 1.3251,-0.25332 0.459,10e-6 0.866,0.0758 1.2211,0.22734 0.3551,0.14723 0.669,0.35725 0.9418,0.63005 l -0.3052,0.4157" />
                  <path
                     inkscape:connector-curvature="0"
                     id="path7137-5"
                     d="m -1580.497,-743.48541 -0.5131,0 c -0.1126,0 -0.2035,-0.0173 -0.2728,-0.052 -0.069,-0.0346 -0.1148,-0.10825 -0.1364,-0.22084 l -0.1299,-0.61056 c -0.1732,0.15589 -0.3421,0.29662 -0.5067,0.4222 -0.1645,0.12124 -0.3377,0.22517 -0.5196,0.31177 -0.1819,0.0823 -0.3767,0.14507 -0.5846,0.18837 -0.2035,0.0433 -0.4308,0.065 -0.682,0.065 -0.2555,0 -0.4958,-0.0346 -0.721,-0.10392 -0.2208,-0.0736 -0.4135,-0.18187 -0.5781,-0.32477 -0.1645,-0.1429 -0.2966,-0.3226 -0.3962,-0.53911 -0.095,-0.22084 -0.1429,-0.48066 -0.1429,-0.77944 0,-0.25982 0.072,-0.5088 0.2144,-0.74697 0.1429,-0.24249 0.3724,-0.45683 0.6885,-0.64304 0.3204,-0.18619 0.7383,-0.33775 1.2536,-0.45467 0.5153,-0.12124 1.1453,-0.19053 1.8901,-0.20785 l 0,-0.51313 c 0,-0.51096 -0.1104,-0.89635 -0.3312,-1.15617 -0.2165,-0.26414 -0.5391,-0.39621 -0.9678,-0.39622 -0.2815,10e-6 -0.5197,0.0368 -0.7145,0.11042 -0.1906,0.0693 -0.3573,0.1494 -0.5002,0.24033 -0.1385,0.0866 -0.2598,0.16672 -0.3637,0.24033 -0.1,0.0693 -0.1992,0.10393 -0.2988,0.10392 -0.078,10e-6 -0.1472,-0.0195 -0.2078,-0.0585 -0.056,-0.0433 -0.1018,-0.0953 -0.1364,-0.15588 l -0.2079,-0.37024 c 0.3637,-0.35074 0.7556,-0.61272 1.1757,-0.78593 0.42,-0.17321 0.8855,-0.25981 1.3965,-0.25982 0.368,10e-6 0.695,0.0606 0.9808,0.18187 0.2857,0.12125 0.5261,0.29013 0.7209,0.50664 0.1949,0.21652 0.3421,0.47849 0.4417,0.78593 0.1,0.30746 0.1494,0.64521 0.1494,1.01328 l 0,4.20898 m -3.0008,-0.70799 c 0.2035,0 0.3897,-0.0195 0.5586,-0.0585 0.1688,-0.0433 0.3269,-0.10176 0.4741,-0.17538 0.1516,-0.0779 0.2945,-0.17104 0.4287,-0.2793 0.1386,-0.10825 0.2728,-0.23166 0.4027,-0.37023 l 0,-1.37052 c -0.5326,0.0173 -0.9851,0.0606 -1.3575,0.12991 -0.3724,0.065 -0.6755,0.15156 -0.9093,0.25981 -0.2339,0.10826 -0.4049,0.236 -0.5132,0.38323 -0.1039,0.14723 -0.1559,0.31178 -0.1559,0.49364 0,0.17321 0.028,0.32261 0.084,0.44818 0.056,0.12558 0.132,0.22951 0.2273,0.31178 0.095,0.0779 0.2079,0.1364 0.3378,0.17537 0.1299,0.0346 0.2706,0.052 0.4222,0.052" />
                  <path
                     inkscape:connector-curvature="0"
                     id="path7139-9"
                     d="m -1576.7386,-743.38149 c -0.5196,0 -0.9202,-0.14506 -1.2017,-0.43518 -0.2771,-0.29013 -0.4157,-0.708 -0.4157,-1.25361 l 0,-4.02711 -0.7924,0 c -0.069,10e-6 -0.1277,-0.0195 -0.1754,-0.0584 -0.048,-0.0433 -0.071,-0.10825 -0.071,-0.19486 l 0,-0.46117 1.0782,-0.13641 0.2663,-2.03304 c 0.01,-0.0649 0.037,-0.1169 0.084,-0.15588 0.048,-0.0433 0.1082,-0.0649 0.1818,-0.065 l 0.5846,0 0,2.26688 1.8837,0 0,0.83789 -1.8837,0 0,3.94917 c 0,0.27714 0.067,0.48282 0.2014,0.61706 0.1342,0.13424 0.3074,0.20135 0.5196,0.20135 0.1212,0 0.2252,-0.0152 0.3118,-0.0455 0.091,-0.0346 0.1688,-0.0715 0.2338,-0.11042 0.065,-0.039 0.1191,-0.0736 0.1624,-0.10393 0.048,-0.0346 0.089,-0.052 0.1234,-0.052 0.061,0 0.1147,0.0368 0.1624,0.11042 l 0.3377,0.5521 c -0.1992,0.1862 -0.4395,0.33343 -0.7209,0.44168 -0.2815,0.10393 -0.5716,0.15589 -0.8704,0.15589" />
                  <path
                     inkscape:connector-curvature="0"
                     id="path7141-3"
                     d="m -1572.6005,-750.06519 0,6.57978 -1.1561,0 0,-6.57978 1.1561,0 m 0.2598,-2.06552 c 0,0.1126 -0.024,0.21869 -0.071,0.31827 -0.043,0.0953 -0.1039,0.18188 -0.1819,0.25982 -0.074,0.0736 -0.1602,0.13208 -0.2598,0.17537 -0.1,0.0433 -0.2057,0.065 -0.3183,0.0649 -0.1126,1e-5 -0.2186,-0.0216 -0.3182,-0.0649 -0.095,-0.0433 -0.1819,-0.10175 -0.2599,-0.17537 -0.074,-0.0779 -0.132,-0.16454 -0.1753,-0.25982 -0.043,-0.0996 -0.065,-0.20567 -0.065,-0.31827 0,-0.11258 0.022,-0.21867 0.065,-0.31827 0.043,-0.10392 0.1017,-0.19269 0.1753,-0.26631 0.078,-0.0779 0.1646,-0.13856 0.2599,-0.18187 0.1,-0.0433 0.2056,-0.0649 0.3182,-0.065 0.1126,1e-5 0.2187,0.0217 0.3183,0.065 0.1,0.0433 0.1862,0.10394 0.2598,0.18187 0.078,0.0736 0.1386,0.16239 0.1819,0.26631 0.048,0.0996 0.071,0.20569 0.071,0.31827" />
                  <path
                     inkscape:connector-curvature="0"
                     id="path7143-4"
                     d="m -1567.8997,-750.16912 c 0.4807,10e-6 0.9137,0.0801 1.2991,0.24033 0.3897,0.16023 0.7188,0.38756 0.9873,0.68201 0.2728,0.29446 0.4806,0.65171 0.6235,1.07173 0.1473,0.41571 0.2209,0.88121 0.2209,1.3965 0,0.51963 -0.074,0.98729 -0.2209,1.40299 -0.1429,0.41571 -0.3507,0.77079 -0.6235,1.06524 -0.2685,0.29446 -0.5976,0.52179 -0.9873,0.68201 -0.3854,0.15589 -0.8184,0.23383 -1.2991,0.23383 -0.4806,0 -0.9158,-0.0779 -1.3055,-0.23383 -0.3854,-0.16022 -0.7145,-0.38755 -0.9873,-0.68201 -0.2728,-0.29445 -0.4829,-0.64953 -0.6301,-1.06524 -0.1472,-0.4157 -0.2208,-0.88336 -0.2208,-1.40299 0,-0.51529 0.074,-0.98079 0.2208,-1.3965 0.1472,-0.42002 0.3573,-0.77727 0.6301,-1.07173 0.2728,-0.29445 0.6019,-0.52178 0.9873,-0.68201 0.3897,-0.16021 0.8249,-0.24032 1.3055,-0.24033 m 0,5.87179 c 0.6495,0 1.1345,-0.21651 1.455,-0.64953 0.3204,-0.43735 0.4806,-1.04575 0.4806,-1.82519 0,-0.78377 -0.1602,-1.39433 -0.4806,-1.83169 -0.3205,-0.43735 -0.8055,-0.65602 -1.455,-0.65603 -0.3291,10e-6 -0.6149,0.0563 -0.8574,0.16888 -0.2425,0.11259 -0.446,0.27497 -0.6105,0.48715 -0.1602,0.21219 -0.2815,0.47416 -0.3638,0.78594 -0.078,0.30745 -0.1169,0.65603 -0.1169,1.04575 0,0.38972 0.039,0.7383 0.1169,1.04575 0.082,0.30744 0.2036,0.56726 0.3638,0.77944 0.1645,0.20785 0.368,0.36807 0.6105,0.48065 0.2425,0.11259 0.5283,0.16888 0.8574,0.16888" />
                  <path
                     inkscape:connector-curvature="0"
                     id="path7145-5"
                     d="m -1563.3316,-743.48541 0,-6.57978 0.6885,0 c 0.1645,10e-6 0.2684,0.0801 0.3118,0.24033 l 0.091,0.71448 c 0.2858,-0.3161 0.6041,-0.57158 0.9548,-0.76645 0.3551,-0.19485 0.7643,-0.29228 1.2276,-0.29229 0.3594,10e-6 0.6755,0.0606 0.9483,0.18187 0.2772,0.11693 0.5067,0.2858 0.6885,0.50664 0.1862,0.21652 0.327,0.47849 0.4222,0.78594 0.095,0.30745 0.1429,0.64737 0.1429,1.01976 l 0,4.1895 -1.1561,0 0,-4.1895 c 0,-0.49797 -0.1148,-0.88336 -0.3443,-1.15617 -0.2252,-0.27713 -0.5716,-0.41569 -1.0392,-0.4157 -0.3421,10e-6 -0.6626,0.0823 -0.9613,0.24682 -0.2945,0.16456 -0.5673,0.38756 -0.8185,0.66902 l 0,4.84553 -1.1561,0" />
                  <path
                     inkscape:connector-curvature="0"
                     id="path7147-4"
                     d="m -1549.1003,-748.89603 c -0.035,0.0476 -0.069,0.0844 -0.104,0.11042 -0.035,0.026 -0.084,0.039 -0.1494,0.039 -0.065,1e-5 -0.1364,-0.026 -0.2143,-0.0779 -0.074,-0.0563 -0.1689,-0.11691 -0.2858,-0.18187 -0.1169,-0.065 -0.2598,-0.12341 -0.4287,-0.17538 -0.1645,-0.0563 -0.3681,-0.0844 -0.6106,-0.0844 -0.3204,0 -0.604,0.0585 -0.8508,0.17537 -0.2469,0.11259 -0.4547,0.27714 -0.6236,0.49365 -0.1645,0.21651 -0.2901,0.47849 -0.3767,0.78593 -0.082,0.30745 -0.1234,0.6517 -0.1234,1.03276 0,0.39838 0.045,0.75346 0.1364,1.06524 0.091,0.30744 0.2186,0.56726 0.3832,0.77944 0.1645,0.20785 0.3637,0.36807 0.5976,0.48065 0.2381,0.10826 0.5044,0.16239 0.7989,0.16239 0.2814,0 0.5131,-0.0325 0.695,-0.0974 0.1819,-0.0693 0.3334,-0.14507 0.4547,-0.22734 0.1212,-0.0823 0.2208,-0.15589 0.2987,-0.22084 0.078,-0.0693 0.1559,-0.10393 0.2339,-0.10393 0.1,0 0.1732,0.0368 0.2208,0.11042 l 0.3248,0.4222 c -0.2858,0.35075 -0.6431,0.6084 -1.0717,0.77294 -0.4287,0.16022 -0.8812,0.24033 -1.3576,0.24033 -0.4113,0 -0.7946,-0.0758 -1.1496,-0.22733 -0.3508,-0.15156 -0.6561,-0.37024 -0.9159,-0.65603 -0.2598,-0.29013 -0.4655,-0.64521 -0.617,-1.06524 -0.1473,-0.42003 -0.2209,-0.89852 -0.2209,-1.43547 0,-0.48931 0.067,-0.94182 0.2014,-1.35753 0.1385,-0.41569 0.3377,-0.77294 0.5975,-1.07173 0.2642,-0.30311 0.5889,-0.5391 0.9743,-0.70799 0.3854,-0.16887 0.8271,-0.25331 1.3251,-0.25332 0.459,10e-6 0.866,0.0758 1.2211,0.22734 0.3551,0.14723 0.669,0.35725 0.9418,0.63005 l -0.3052,0.4157" />
                  <path
                     inkscape:connector-curvature="0"
                     id="path7149-2"
                     d="m -1546.5243,-750.06519 0,4.19599 c 0,0.49798 0.1147,0.88337 0.3442,1.15617 0.2295,0.2728 0.5759,0.40921 1.0393,0.4092 0.3377,10e-6 0.656,-0.0801 0.9548,-0.24032 0.2988,-0.16022 0.5737,-0.38323 0.8249,-0.66902 l 0,-4.85202 1.1562,0 0,6.57978 -0.6885,0 c -0.1646,0 -0.2685,-0.0801 -0.3118,-0.24033 l -0.091,-0.70799 c -0.2858,0.31611 -0.6063,0.57159 -0.9614,0.76645 -0.355,0.19053 -0.7621,0.28579 -1.2211,0.28579 -0.3594,0 -0.6777,-0.0585 -0.9548,-0.17537 -0.2728,-0.12125 -0.5023,-0.29013 -0.6885,-0.50664 -0.1862,-0.21651 -0.3269,-0.47849 -0.4222,-0.78593 -0.091,-0.30745 -0.1364,-0.64737 -0.1364,-1.01977 l 0,-4.19599 1.1562,0" />
                  <path
                     inkscape:connector-curvature="0"
                     id="path7151-0"
                     d="m -1536.5262,-748.98047 c -0.052,0.0953 -0.1321,0.1429 -0.2403,0.1429 -0.065,0 -0.1386,-0.0238 -0.2208,-0.0715 -0.082,-0.0476 -0.1841,-0.0996 -0.3053,-0.15589 -0.1169,-0.0606 -0.2577,-0.11474 -0.4222,-0.16238 -0.1646,-0.052 -0.3594,-0.0779 -0.5846,-0.0779 -0.1949,10e-6 -0.3702,0.026 -0.5261,0.0779 -0.1559,0.0476 -0.2902,0.11475 -0.4027,0.20135 -0.1083,0.0866 -0.1927,0.18837 -0.2534,0.30528 -0.056,0.11259 -0.084,0.23601 -0.084,0.37024 0,0.16888 0.048,0.30961 0.1429,0.4222 0.1,0.11259 0.2295,0.21002 0.3897,0.29229 0.1602,0.0823 0.3421,0.15589 0.5456,0.22084 0.2036,0.0606 0.4114,0.12774 0.6236,0.20135 0.2165,0.0693 0.4265,0.14723 0.63,0.23383 0.2036,0.0866 0.3854,0.19487 0.5456,0.32477 0.1603,0.12991 0.288,0.29013 0.3833,0.48066 0.1,0.1862 0.1494,0.41137 0.1494,0.67551 0,0.30312 -0.054,0.58458 -0.1624,0.8444 -0.1083,0.25548 -0.2685,0.47849 -0.4807,0.66902 -0.2122,0.1862 -0.472,0.33342 -0.7794,0.44168 -0.3075,0.10825 -0.6625,0.16238 -1.0653,0.16238 -0.459,0 -0.8747,-0.0736 -1.2471,-0.22084 -0.3724,-0.15156 -0.6885,-0.34425 -0.9483,-0.57808 l 0.2728,-0.44169 c 0.035,-0.0563 0.076,-0.0996 0.1234,-0.1299 0.048,-0.0303 0.1105,-0.0455 0.1884,-0.0455 0.078,0 0.1602,0.0303 0.2468,0.0909 0.087,0.0606 0.1906,0.12775 0.3118,0.20136 0.1256,0.0736 0.275,0.14073 0.4482,0.20135 0.1775,0.0606 0.3984,0.0909 0.6625,0.0909 0.2252,0 0.4222,-0.0281 0.5911,-0.0844 0.1689,-0.0606 0.3096,-0.14073 0.4222,-0.24033 0.1126,-0.0996 0.1948,-0.21434 0.2468,-0.34425 0.056,-0.12991 0.084,-0.26847 0.084,-0.4157 0,-0.18187 -0.05,-0.33126 -0.1494,-0.44818 -0.095,-0.12124 -0.223,-0.223 -0.3832,-0.30528 -0.1602,-0.0866 -0.3442,-0.16022 -0.5521,-0.22084 -0.2035,-0.0649 -0.4135,-0.13207 -0.63,-0.20136 -0.2122,-0.0693 -0.4222,-0.14722 -0.6301,-0.23383 -0.2035,-0.0909 -0.3854,-0.20352 -0.5456,-0.33776 -0.1602,-0.13423 -0.2901,-0.29878 -0.3897,-0.49364 -0.095,-0.19919 -0.1429,-0.43952 -0.1429,-0.72099 0,-0.25115 0.052,-0.49147 0.1559,-0.72098 0.1039,-0.23383 0.2555,-0.43735 0.4547,-0.61056 0.1991,-0.17753 0.4438,-0.31827 0.7339,-0.4222 0.2902,-0.10392 0.6214,-0.15588 0.9938,-0.15589 0.433,10e-6 0.8206,0.0693 1.1627,0.20785 0.3464,0.13425 0.6452,0.32045 0.8963,0.5586 l -0.2598,0.4222" />
                  <path
                     inkscape:connector-curvature="0"
                     id="path7153-3"
                     d="m -1532.6667,-743.38149 c -0.5197,0 -0.9202,-0.14506 -1.2017,-0.43518 -0.2771,-0.29013 -0.4157,-0.708 -0.4157,-1.25361 l 0,-4.02711 -0.7924,0 c -0.069,10e-6 -0.1277,-0.0195 -0.1754,-0.0584 -0.048,-0.0433 -0.071,-0.10825 -0.071,-0.19486 l 0,-0.46117 1.0782,-0.13641 0.2663,-2.03304 c 0.01,-0.0649 0.037,-0.1169 0.085,-0.15588 0.048,-0.0433 0.1082,-0.0649 0.1818,-0.065 l 0.5846,0 0,2.26688 1.8837,0 0,0.83789 -1.8837,0 0,3.94917 c 0,0.27714 0.067,0.48282 0.2014,0.61706 0.1342,0.13424 0.3074,0.20135 0.5196,0.20135 0.1212,0 0.2252,-0.0152 0.3118,-0.0455 0.091,-0.0346 0.1688,-0.0715 0.2338,-0.11042 0.065,-0.039 0.1191,-0.0736 0.1624,-0.10393 0.048,-0.0346 0.089,-0.052 0.1234,-0.052 0.061,0 0.1147,0.0368 0.1624,0.11042 l 0.3377,0.5521 c -0.1992,0.1862 -0.4395,0.33343 -0.721,0.44168 -0.2814,0.10393 -0.5715,0.15589 -0.8703,0.15589" />
                  <path
                     inkscape:connector-curvature="0"
                     id="path7155-1"
                     d="m -1527.1516,-750.16912 c 0.4807,10e-6 0.9137,0.0801 1.2991,0.24033 0.3897,0.16023 0.7188,0.38756 0.9873,0.68201 0.2728,0.29446 0.4806,0.65171 0.6235,1.07173 0.1473,0.41571 0.2209,0.88121 0.2209,1.3965 0,0.51963 -0.074,0.98729 -0.2209,1.40299 -0.1429,0.41571 -0.3507,0.77079 -0.6235,1.06524 -0.2685,0.29446 -0.5976,0.52179 -0.9873,0.68201 -0.3854,0.15589 -0.8184,0.23383 -1.2991,0.23383 -0.4806,0 -0.9158,-0.0779 -1.3055,-0.23383 -0.3854,-0.16022 -0.7145,-0.38755 -0.9873,-0.68201 -0.2728,-0.29445 -0.4829,-0.64953 -0.6301,-1.06524 -0.1472,-0.4157 -0.2208,-0.88336 -0.2208,-1.40299 0,-0.51529 0.074,-0.98079 0.2208,-1.3965 0.1472,-0.42002 0.3573,-0.77727 0.6301,-1.07173 0.2728,-0.29445 0.6019,-0.52178 0.9873,-0.68201 0.3897,-0.16021 0.8249,-0.24032 1.3055,-0.24033 m 0,5.87179 c 0.6496,0 1.1345,-0.21651 1.455,-0.64953 0.3204,-0.43735 0.4806,-1.04575 0.4806,-1.82519 0,-0.78377 -0.1602,-1.39433 -0.4806,-1.83169 -0.3205,-0.43735 -0.8054,-0.65602 -1.455,-0.65603 -0.3291,10e-6 -0.6149,0.0563 -0.8574,0.16888 -0.2425,0.11259 -0.446,0.27497 -0.6105,0.48715 -0.1602,0.21219 -0.2815,0.47416 -0.3638,0.78594 -0.078,0.30745 -0.1169,0.65603 -0.1169,1.04575 0,0.38972 0.039,0.7383 0.1169,1.04575 0.082,0.30744 0.2036,0.56726 0.3638,0.77944 0.1645,0.20785 0.368,0.36807 0.6105,0.48065 0.2425,0.11259 0.5283,0.16888 0.8574,0.16888" />
                  <path
                     inkscape:connector-curvature="0"
                     id="path7157-0"
                     d="m -1522.5835,-743.48541 0,-6.57978 0.6885,0 c 0.1645,10e-6 0.2685,0.0801 0.3118,0.24033 l 0.084,0.67551 c 0.2425,-0.29878 0.5131,-0.54344 0.8119,-0.73397 0.3031,-0.19053 0.6539,-0.28579 1.0523,-0.2858 0.446,10e-6 0.8054,0.12342 1.0782,0.37024 0.2771,0.24683 0.4763,0.58025 0.5976,1.00028 0.091,-0.23816 0.21,-0.44384 0.3572,-0.61706 0.1516,-0.1732 0.3204,-0.3161 0.5066,-0.42869 0.1862,-0.11258 0.3833,-0.19485 0.5911,-0.24682 0.2122,-0.052 0.4265,-0.0779 0.6431,-0.0779 0.3464,1e-5 0.6538,0.0563 0.9223,0.16888 0.2728,0.10826 0.5023,0.26848 0.6885,0.48066 0.1905,0.21218 0.3356,0.47416 0.4352,0.78593 0.1,0.30745 0.1494,0.66037 0.1494,1.05874 l 0,4.1895 -1.1562,0 0,-4.1895 c 0,-0.51529 -0.1126,-0.90501 -0.3378,-1.16916 -0.2251,-0.26847 -0.5521,-0.4027 -0.9807,-0.40271 -0.1906,10e-6 -0.3725,0.0346 -0.5457,0.10393 -0.1688,0.065 -0.3182,0.16239 -0.4481,0.29229 -0.1299,0.12991 -0.2339,0.29446 -0.3118,0.49364 -0.074,0.19487 -0.1104,0.4222 -0.1104,0.68201 l 0,4.1895 -1.1562,0 0,-4.1895 c 0,-0.52828 -0.1061,-0.92233 -0.3183,-1.18215 -0.2122,-0.25981 -0.5218,-0.38971 -0.9288,-0.38972 -0.2858,10e-6 -0.5521,0.0779 -0.7989,0.23383 -0.2425,0.15157 -0.4655,0.35942 -0.6691,0.62356 l 0,4.90398 -1.1561,0" />
                  <path
                     inkscape:connector-curvature="0"
                     id="path7159-4"
                     d="m -1510.641,-750.06519 0,6.57978 -1.1562,0 0,-6.57978 1.1562,0 m 0.2598,-2.06552 c 0,0.1126 -0.024,0.21869 -0.072,0.31827 -0.043,0.0953 -0.1039,0.18188 -0.1818,0.25982 -0.074,0.0736 -0.1603,0.13208 -0.2598,0.17537 -0.1,0.0433 -0.2057,0.065 -0.3183,0.0649 -0.1126,1e-5 -0.2187,-0.0216 -0.3183,-0.0649 -0.095,-0.0433 -0.1819,-0.10175 -0.2598,-0.17537 -0.074,-0.0779 -0.1321,-0.16454 -0.1754,-0.25982 -0.043,-0.0996 -0.065,-0.20567 -0.065,-0.31827 0,-0.11258 0.022,-0.21867 0.065,-0.31827 0.043,-0.10392 0.1018,-0.19269 0.1754,-0.26631 0.078,-0.0779 0.1645,-0.13856 0.2598,-0.18187 0.1,-0.0433 0.2057,-0.0649 0.3183,-0.065 0.1126,1e-5 0.2187,0.0217 0.3183,0.065 0.1,0.0433 0.1861,0.10394 0.2598,0.18187 0.078,0.0736 0.1385,0.16239 0.1818,0.26631 0.048,0.0996 0.072,0.20569 0.072,0.31827" />
                  <path
                     inkscape:connector-curvature="0"
                     id="path7161-7"
                     d="m -1504.0111,-749.57155 c 0,0.0823 -0.015,0.16239 -0.045,0.24033 -0.03,0.0736 -0.069,0.14074 -0.1169,0.20136 l -3.5594,4.7416 3.5919,0 0,0.90285 -4.956,0 0,-0.48066 c 0,-0.0563 0.013,-0.12124 0.039,-0.19486 0.03,-0.0779 0.072,-0.15155 0.1234,-0.22084 l 3.579,-4.77407 -3.54,0 0,-0.90935 4.8845,0 0,0.49364" />
                  <path
                     inkscape:connector-curvature="0"
                     id="path7163-5"
                     d="m -1497.7575,-743.48541 -0.5132,0 c -0.1125,0 -0.2035,-0.0173 -0.2728,-0.052 -0.069,-0.0346 -0.1147,-0.10825 -0.1364,-0.22084 l -0.1299,-0.61056 c -0.1732,0.15589 -0.3421,0.29662 -0.5066,0.4222 -0.1646,0.12124 -0.3378,0.22517 -0.5196,0.31177 -0.1819,0.0823 -0.3768,0.14507 -0.5846,0.18837 -0.2035,0.0433 -0.4309,0.065 -0.682,0.065 -0.2555,0 -0.4958,-0.0346 -0.721,-0.10392 -0.2208,-0.0736 -0.4135,-0.18187 -0.5781,-0.32477 -0.1645,-0.1429 -0.2966,-0.3226 -0.3962,-0.53911 -0.095,-0.22084 -0.1429,-0.48066 -0.1429,-0.77944 0,-0.25982 0.071,-0.5088 0.2143,-0.74697 0.1429,-0.24249 0.3724,-0.45683 0.6885,-0.64304 0.3205,-0.18619 0.7383,-0.33775 1.2536,-0.45467 0.5153,-0.12124 1.1454,-0.19053 1.8902,-0.20785 l 0,-0.51313 c 0,-0.51096 -0.1104,-0.89635 -0.3313,-1.15617 -0.2165,-0.26414 -0.5391,-0.39621 -0.9678,-0.39622 -0.2814,10e-6 -0.5196,0.0368 -0.7145,0.11042 -0.1905,0.0693 -0.3572,0.1494 -0.5001,0.24033 -0.1386,0.0866 -0.2598,0.16672 -0.3637,0.24033 -0.1,0.0693 -0.1992,0.10393 -0.2988,0.10392 -0.078,10e-6 -0.1473,-0.0195 -0.2079,-0.0585 -0.056,-0.0433 -0.1017,-0.0953 -0.1364,-0.15588 l -0.2078,-0.37024 c 0.3637,-0.35074 0.7556,-0.61272 1.1756,-0.78593 0.4201,-0.17321 0.8856,-0.25981 1.3965,-0.25982 0.3681,10e-6 0.695,0.0606 0.9808,0.18187 0.2858,0.12125 0.5261,0.29013 0.721,0.50664 0.1949,0.21652 0.3421,0.47849 0.4417,0.78593 0.1,0.30746 0.1494,0.64521 0.1494,1.01328 l 0,4.20898 m -3.0009,-0.70799 c 0.2035,0 0.3897,-0.0195 0.5586,-0.0585 0.1689,-0.0433 0.327,-0.10176 0.4742,-0.17538 0.1515,-0.0779 0.2944,-0.17104 0.4287,-0.2793 0.1385,-0.10825 0.2728,-0.23166 0.4027,-0.37023 l 0,-1.37052 c -0.5326,0.0173 -0.9851,0.0606 -1.3575,0.12991 -0.3724,0.065 -0.6756,0.15156 -0.9094,0.25981 -0.2338,0.10826 -0.4049,0.236 -0.5131,0.38323 -0.1039,0.14723 -0.1559,0.31178 -0.1559,0.49364 0,0.17321 0.028,0.32261 0.084,0.44818 0.056,0.12558 0.1321,0.22951 0.2274,0.31178 0.095,0.0779 0.2078,0.1364 0.3377,0.17537 0.1299,0.0346 0.2707,0.052 0.4222,0.052" />
                  <path
                     inkscape:connector-curvature="0"
                     id="path7165-2"
                     d="m -1493.9992,-743.38149 c -0.5196,0 -0.9201,-0.14506 -1.2016,-0.43518 -0.2771,-0.29013 -0.4157,-0.708 -0.4157,-1.25361 l 0,-4.02711 -0.7924,0 c -0.069,10e-6 -0.1278,-0.0195 -0.1754,-0.0584 -0.048,-0.0433 -0.071,-0.10825 -0.071,-0.19486 l 0,-0.46117 1.0782,-0.13641 0.2663,-2.03304 c 0.01,-0.0649 0.037,-0.1169 0.084,-0.15588 0.048,-0.0433 0.1083,-0.0649 0.1819,-0.065 l 0.5846,0 0,2.26688 1.8836,0 0,0.83789 -1.8836,0 0,3.94917 c 0,0.27714 0.067,0.48282 0.2013,0.61706 0.1343,0.13424 0.3075,0.20135 0.5197,0.20135 0.1212,0 0.2251,-0.0152 0.3117,-0.0455 0.091,-0.0346 0.1689,-0.0715 0.2339,-0.11042 0.065,-0.039 0.119,-0.0736 0.1624,-0.10393 0.048,-0.0346 0.089,-0.052 0.1234,-0.052 0.061,0 0.1147,0.0368 0.1623,0.11042 l 0.3378,0.5521 c -0.1992,0.1862 -0.4395,0.33343 -0.721,0.44168 -0.2814,0.10393 -0.5716,0.15589 -0.8704,0.15589" />
                  <path
                     inkscape:connector-curvature="0"
                     id="path7167-7"
                     d="m -1489.861,-750.06519 0,6.57978 -1.1562,0 0,-6.57978 1.1562,0 m 0.2598,-2.06552 c 0,0.1126 -0.024,0.21869 -0.072,0.31827 -0.043,0.0953 -0.1039,0.18188 -0.1818,0.25982 -0.074,0.0736 -0.1602,0.13208 -0.2598,0.17537 -0.1,0.0433 -0.2057,0.065 -0.3183,0.0649 -0.1126,1e-5 -0.2187,-0.0216 -0.3183,-0.0649 -0.095,-0.0433 -0.1818,-0.10175 -0.2598,-0.17537 -0.074,-0.0779 -0.1321,-0.16454 -0.1754,-0.25982 -0.043,-0.0996 -0.065,-0.20567 -0.065,-0.31827 0,-0.11258 0.022,-0.21867 0.065,-0.31827 0.043,-0.10392 0.1018,-0.19269 0.1754,-0.26631 0.078,-0.0779 0.1646,-0.13856 0.2598,-0.18187 0.1,-0.0433 0.2057,-0.0649 0.3183,-0.065 0.1126,1e-5 0.2187,0.0217 0.3183,0.065 0.1,0.0433 0.1862,0.10394 0.2598,0.18187 0.078,0.0736 0.1385,0.16239 0.1818,0.26631 0.048,0.0996 0.072,0.20569 0.072,0.31827" />
                  <path
                     inkscape:connector-curvature="0"
                     id="path7169-7"
                     d="m -1485.1602,-750.16912 c 0.4806,10e-6 0.9137,0.0801 1.2991,0.24033 0.3897,0.16023 0.7188,0.38756 0.9872,0.68201 0.2728,0.29446 0.4807,0.65171 0.6236,1.07173 0.1472,0.41571 0.2208,0.88121 0.2208,1.3965 0,0.51963 -0.074,0.98729 -0.2208,1.40299 -0.1429,0.41571 -0.3508,0.77079 -0.6236,1.06524 -0.2684,0.29446 -0.5975,0.52179 -0.9872,0.68201 -0.3854,0.15589 -0.8185,0.23383 -1.2991,0.23383 -0.4807,0 -0.9159,-0.0779 -1.3056,-0.23383 -0.3854,-0.16022 -0.7145,-0.38755 -0.9873,-0.68201 -0.2728,-0.29445 -0.4828,-0.64953 -0.63,-1.06524 -0.1472,-0.4157 -0.2209,-0.88336 -0.2209,-1.40299 0,-0.51529 0.074,-0.98079 0.2209,-1.3965 0.1472,-0.42002 0.3572,-0.77727 0.63,-1.07173 0.2728,-0.29445 0.6019,-0.52178 0.9873,-0.68201 0.3897,-0.16021 0.8249,-0.24032 1.3056,-0.24033 m 0,5.87179 c 0.6495,0 1.1345,-0.21651 1.4549,-0.64953 0.3205,-0.43735 0.4807,-1.04575 0.4807,-1.82519 0,-0.78377 -0.1602,-1.39433 -0.4807,-1.83169 -0.3204,-0.43735 -0.8054,-0.65602 -1.4549,-0.65603 -0.3291,10e-6 -0.6149,0.0563 -0.8574,0.16888 -0.2425,0.11259 -0.446,0.27497 -0.6106,0.48715 -0.1602,0.21219 -0.2814,0.47416 -0.3637,0.78594 -0.078,0.30745 -0.1169,0.65603 -0.1169,1.04575 0,0.38972 0.039,0.7383 0.1169,1.04575 0.082,0.30744 0.2035,0.56726 0.3637,0.77944 0.1646,0.20785 0.3681,0.36807 0.6106,0.48065 0.2425,0.11259 0.5283,0.16888 0.8574,0.16888" />
                  <path
                     inkscape:connector-curvature="0"
                     id="path7171-6"
                     d="m -1480.5922,-743.48541 0,-6.57978 0.6885,0 c 0.1646,10e-6 0.2685,0.0801 0.3118,0.24033 l 0.091,0.71448 c 0.2857,-0.3161 0.604,-0.57158 0.9548,-0.76645 0.355,-0.19485 0.7643,-0.29228 1.2276,-0.29229 0.3594,10e-6 0.6755,0.0606 0.9483,0.18187 0.2771,0.11693 0.5066,0.2858 0.6885,0.50664 0.1862,0.21652 0.3269,0.47849 0.4222,0.78594 0.095,0.30745 0.1429,0.64737 0.1429,1.01976 l 0,4.1895 -1.1562,0 0,-4.1895 c 0,-0.49797 -0.1147,-0.88336 -0.3442,-1.15617 -0.2252,-0.27713 -0.5716,-0.41569 -1.0393,-0.4157 -0.3421,10e-6 -0.6625,0.0823 -0.9613,0.24682 -0.2944,0.16456 -0.5672,0.38756 -0.8184,0.66902 l 0,4.84553 -1.1562,0" />
                </g>
              </g>
              <rect
                 ry="7.3470001"
                 y="264.32327"
                 x="-3190.0054"
                 height="99.730789"
                 width="264.73077"
                 id="rect4299-79-2-0-2-2"
                 style="fill:#d9d9d9;fill-opacity:1;fill-rule:evenodd;stroke:#666666;stroke-width:0.26920769;stroke-linecap:butt;stroke-linejoin:miter;stroke-miterlimit:4;stroke-dasharray:none;stroke-opacity:1" />
              <g
                 transform="translate(-13.122859,0)"
                 id="g8411">
                <text
                   xml:space="preserve"
                   style="font-style:normal;font-variant:normal;font-stretch:normal;font-size:12.99067879px;line-height:125%;font-family:Lato;-inkscape-font-specification:'Lato Semi-Light';letter-spacing:0px;word-spacing:0px;fill:#000000;fill-opacity:1;stroke:none"
                   x="-3127.2498"
                   y="283.73312"
                   id="text3229-9-0-5-5-2-3-7-9-6-2-1-6-6-3"
                   sodipodi:linespacing="125%"
                   transform="scale(0.99928292,1.0007176)"><tspan
                     sodipodi:role="line"
                     id="tspan3231-65-6-4-6-0-7-6-1-7-9-7-5-5-8"
                     x="-3127.2498"
                     y="283.73312">Application list management</tspan></text>
                <text
                   xml:space="preserve"
                   style="font-style:normal;font-variant:normal;font-stretch:normal;font-size:12.99067879px;line-height:125%;font-family:Lato;-inkscape-font-specification:'Lato Semi-Light';letter-spacing:0px;word-spacing:0px;fill:#000000;fill-opacity:1;stroke:none"
                   x="-3177.5542"
                   y="306.39496"
                   id="text3229-9-0-5-5-2-3-7-9-6-0-4-4-5-3-0"
                   sodipodi:linespacing="125%"
                   transform="scale(0.99928292,1.0007176)"><tspan
                     sodipodi:role="line"
                     id="tspan3231-65-6-4-6-0-7-6-1-7-7-61-7-7-3-3"
                     x="-3177.5542"
                     y="306.39496">Software Development kit (SDK) development</tspan></text>
                <text
                   xml:space="preserve"
                   style="font-style:normal;font-variant:normal;font-stretch:normal;font-size:12.99067879px;line-height:125%;font-family:Lato;-inkscape-font-specification:'Lato Semi-Light';letter-spacing:0px;word-spacing:0px;fill:#000000;fill-opacity:1;stroke:none"
                   x="-3128.8528"
                   y="331.41995"
                   id="text3229-9-0-5-5-2-3-7-9-6-8-2-8-9-8-3"
                   sodipodi:linespacing="125%"
                   transform="scale(0.99928292,1.0007176)"><tspan
                     sodipodi:role="line"
                     id="tspan3231-65-6-4-6-0-7-6-1-7-8-80-1-1-0-2"
                     x="-3128.8528"
                     y="331.41995">Integration into build System</tspan></text>
                <text
                   xml:space="preserve"
                   style="font-style:normal;font-variant:normal;font-stretch:normal;font-size:12.99067879px;line-height:125%;font-family:Lato;-inkscape-font-specification:'Lato Semi-Light';letter-spacing:0px;word-spacing:0px;fill:#000000;fill-opacity:1;stroke:none"
                   x="-3072.0376"
                   y="353.65735"
                   id="text3229-9-0-5-5-2-3-7-9-6-8-8-3-2-5-9-0"
                   sodipodi:linespacing="125%"
                   transform="scale(0.99928292,1.0007176)"><tspan
                     sodipodi:role="line"
                     id="tspan3231-65-6-4-6-0-7-6-1-7-8-8-3-5-9-6-4"
                     x="-3072.0376"
                     y="353.65735">Releases</tspan></text>
              </g>
              <text
                 transform="scale(0.99928292,1.0007176)"
                 sodipodi:linespacing="125%"
                 id="text3229-9-0-5-5-2-3-7-9-6-8-8-3-2-5-9-4-5"
                 y="438.02194"
                 x="-3119.7925"
                 style="font-style:normal;font-variant:normal;font-stretch:normal;font-size:12.99067879px;line-height:125%;font-family:Lato;-inkscape-font-specification:'Lato Semi-Light';letter-spacing:0px;word-spacing:0px;fill:#000000;fill-opacity:1;stroke:none"
                 xml:space="preserve"><tspan
                   y="438.02194"
                   x="-3119.7925"
                   id="tspan3231-65-6-4-6-0-7-6-1-7-8-8-3-5-9-6-5-3"
                   sodipodi:role="line">License management</tspan></text>
            </g>
            <g
               id="g6310"
               transform="translate(1.8652252e-4,0)">
              <path
                 inkscape:connector-curvature="0"
                 id="rect5246-3-6-0-8-5-5-7-4-9-9-1-1-9-3"
                 d="m -2802.9268,180.31531 146.0861,0 c 3.2548,0 5.8752,2.6242 5.8752,5.8839 l 0,14.7947 c 0,3.2596 -2.6204,5.8838 -5.8752,5.8838 l -146.0861,0 c -3.255,0 -5.8753,-2.6242 -5.8753,-5.8838 l 0,-14.7947 c 0,-3.2597 2.6203,-5.8839 5.8753,-5.8839 z"
                 style="fill:#d9d9d9;fill-opacity:1;stroke:#666666;stroke-width:0.22100215;stroke-opacity:1" />
              <path
                 inkscape:connector-curvature="0"
                 id="rect5246-3-6-0-8-5-5-7-4-9-9-1-1-9-5"
                 d="m -2802.9268,59.723247 146.0861,0 c 3.2548,0 5.8752,2.6242 5.8752,5.8839 l 0,14.7947 c 0,3.2596 -2.6204,5.8838 -5.8752,5.8838 l -146.0861,0 c -3.255,0 -5.8753,-2.6242 -5.8753,-5.8838 l 0,-14.7947 c 0,-3.2597 2.6203,-5.8839 5.8753,-5.8839 z"
                 style="fill:#d9d9d9;fill-opacity:1;stroke:#666666;stroke-width:0.22100215;stroke-opacity:1" />
              <text
                 transform="scale(0.99928292,1.0007176)"
                 sodipodi:linespacing="125%"
                 id="text3229-9-0-5-5-2-3-7-3-4-5-0-4-7-5-6-9"
                 y="76.621964"
                 x="-2791.6533"
                 style="font-style:normal;font-variant:normal;font-stretch:normal;font-size:12.99067879px;line-height:125%;font-family:Lato;-inkscape-font-specification:'Lato Semi-Light';letter-spacing:0px;word-spacing:0px;fill:#000000;fill-opacity:1;stroke:none"
                 xml:space="preserve"><tspan
                   y="76.621964"
                   x="-2791.6533"
                   id="tspan3231-65-6-4-6-0-7-6-6-2-7-5-9-3-8-6-9"
                   sodipodi:role="line">Low Level Developer</tspan></text>
              <text
                 transform="scale(0.99928292,1.0007176)"
                 sodipodi:linespacing="125%"
                 id="text3229-9-0-5-5-2-3-7-3-4-5-0-4-7-5-6-0-6"
                 y="197.12755"
                 x="-2794.0132"
                 style="font-style:normal;font-variant:normal;font-stretch:normal;font-size:12.99067879px;line-height:125%;font-family:Lato;-inkscape-font-specification:'Lato Semi-Light';letter-spacing:0px;word-spacing:0px;fill:#000000;fill-opacity:1;stroke:none"
                 xml:space="preserve"><tspan
                   y="197.12755"
                   x="-2794.0132"
                   id="tspan3231-65-6-4-6-0-7-6-6-2-7-5-9-3-8-6-3-0"
                   sodipodi:role="line">Application Developer</tspan></text>
              <path
                 inkscape:connector-curvature="0"
                 id="rect5246-3-6-0-8-5-5-7-4-9-9-1-1-9-7"
                 d="m -2802.9268,300.90747 146.0861,0 c 3.2548,0 5.8752,2.6242 5.8752,5.8839 l 0,14.7947 c 0,3.2596 -2.6204,5.8838 -5.8752,5.8838 l -146.0861,0 c -3.255,0 -5.8753,-2.6242 -5.8753,-5.8838 l 0,-14.7947 c 0,-3.2597 2.6203,-5.8839 5.8753,-5.8839 z"
                 style="fill:#d9d9d9;fill-opacity:1;stroke:#666666;stroke-width:0.22100215;stroke-opacity:1" />
              <text
                 transform="scale(0.99928292,1.0007176)"
                 sodipodi:linespacing="125%"
                 id="text3229-9-0-5-5-2-3-7-3-4-5-0-4-7-5-6-0-6-5"
                 y="317.63324"
                 x="-2779.3594"
                 style="font-style:normal;font-variant:normal;font-stretch:normal;font-size:12.99067879px;line-height:125%;font-family:Lato;-inkscape-font-specification:'Lato Semi-Light';letter-spacing:0px;word-spacing:0px;fill:#000000;fill-opacity:1;stroke:none"
                 xml:space="preserve"><tspan
                   y="317.63324"
                   x="-2779.3594"
                   id="tspan3231-65-6-4-6-0-7-6-6-2-7-5-9-3-8-6-3-0-0"
                   sodipodi:role="line">System Architect</tspan></text>
              <path
                 inkscape:connector-curvature="0"
                 id="rect5246-3-6-0-8-5-5-7-4-9-9-1-1-9-8"
                 d="m -2802.9267,421.49957 146.0861,0 c 3.2548,0 5.8752,2.6242 5.8752,5.8839 l 0,14.7947 c 0,3.2596 -2.6204,5.8838 -5.8752,5.8838 l -146.0861,0 c -3.255,0 -5.8753,-2.6242 -5.8753,-5.8838 l 0,-14.7947 c 0,-3.2597 2.6203,-5.8839 5.8753,-5.8839 z"
                 style="fill:#d9d9d9;fill-opacity:1;stroke:#666666;stroke-width:0.22100215;stroke-opacity:1" />
              <text
                 transform="scale(0.99928292,1.0007176)"
                 sodipodi:linespacing="125%"
                 id="text3229-9-0-5-5-2-3-7-3-4-5-0-4-7-5-6-0-6-5-9"
                 y="438.06741"
                 x="-2775.1101"
                 style="font-style:normal;font-variant:normal;font-stretch:normal;font-size:12.99067879px;line-height:125%;font-family:Lato;-inkscape-font-specification:'Lato Semi-Light';letter-spacing:0px;word-spacing:0px;fill:#000000;fill-opacity:1;stroke:none"
                 xml:space="preserve"><tspan
                   y="438.06741"
                   x="-2775.1101"
                   id="tspan3231-65-6-4-6-0-7-6-6-2-7-5-9-3-8-6-3-0-0-2"
                   sodipodi:role="line">Legal Authority</tspan></text>
            </g>
            <g
               id="g6324"
               transform="translate(14.735729,0)">
              <text
                 transform="scale(1.076779,0.92869568)"
                 sodipodi:linespacing="125%"
                 id="text9326-9-5-3-0-9-2-4-2-494-8-9"
                 y="116.45082"
                 x="-2695.8696"
                 style="font-style:normal;font-variant:normal;font-stretch:normal;font-size:121.67576599px;line-height:125%;font-family:Lato;-inkscape-font-specification:'Lato Semi-Light';letter-spacing:0px;word-spacing:0px;fill:#27bff2;fill-opacity:1;stroke:none"
                 xml:space="preserve"><tspan
                   y="116.45082"
                   x="-2695.8696"
                   id="tspan9328-6-9-1-8-4-6-1-1-4-8-7"
                   sodipodi:role="line">}</tspan></text>
              <text
                 xml:space="preserve"
                 style="font-style:normal;font-variant:normal;font-stretch:normal;font-size:121.67576599px;line-height:125%;font-family:Lato;-inkscape-font-specification:'Lato Semi-Light';letter-spacing:0px;word-spacing:0px;fill:#27bff2;fill-opacity:1;stroke:none"
                 x="-2695.8696"
                 y="246.30185"
                 id="text9326-9-5-3-0-9-2-4-2-494-8-9-7"
                 sodipodi:linespacing="125%"
                 transform="scale(1.076779,0.92869568)"><tspan
                   sodipodi:role="line"
                   id="tspan9328-6-9-1-8-4-6-1-1-4-8-7-4"
                   x="-2695.8696"
                   y="246.30185">}</tspan></text>
              <text
                 xml:space="preserve"
                 style="font-style:normal;font-variant:normal;font-stretch:normal;font-size:121.67576599px;line-height:125%;font-family:Lato;-inkscape-font-specification:'Lato Semi-Light';letter-spacing:0px;word-spacing:0px;fill:#27bff2;fill-opacity:1;stroke:none"
                 x="-2695.8696"
                 y="376.15292"
                 id="text9326-9-5-3-0-9-2-4-2-494-8-9-7-0"
                 sodipodi:linespacing="125%"
                 transform="scale(1.076779,0.92869568)"><tspan
                   sodipodi:role="line"
                   id="tspan9328-6-9-1-8-4-6-1-1-4-8-7-4-8"
                   x="-2695.8696"
                   y="376.15292">}</tspan></text>
              <text
                 xml:space="preserve"
                 style="font-style:normal;font-variant:normal;font-stretch:normal;font-size:121.67576599px;line-height:125%;font-family:Lato;-inkscape-font-specification:'Lato Semi-Light';letter-spacing:0px;word-spacing:0px;fill:#27bff2;fill-opacity:1;stroke:none"
                 x="-2695.8696"
                 y="506.00394"
                 id="text9326-9-5-3-0-9-2-4-2-494-8-9-7-0-3"
                 sodipodi:linespacing="125%"
                 transform="scale(1.076779,0.92869568)"><tspan
                   sodipodi:role="line"
                   id="tspan9328-6-9-1-8-4-6-1-1-4-8-7-4-8-7"
                   x="-2695.8696"
                   y="506.00394">}</tspan></text>
            </g>
          </g>
        </g>
      </g>
    </g>
  </g>
</svg>
